<?xml version="1.0" standalone="no"?>
<!DOCTYPE svg PUBLIC "-//W3C//DTD SVG 20010904//EN"
 "http://www.w3.org/TR/2001/REC-SVG-20010904/DTD/svg10.dtd">
<svg version="1.0" xmlns="http://www.w3.org/2000/svg"
 width="600.000000pt" height="971.000000pt" viewBox="0 0 600.000000 971.000000"
 preserveAspectRatio="xMidYMid meet">
<g transform="translate(0.000000,971.000000) scale(0.100000,-0.100000)"
fill="#000000" stroke="none">
<path d="M4378 9676 c-30 -16 -66 -45 -247 -201 -64 -55 -143 -122 -176 -150
-126 -104 -408 -371 -603 -572 -112 -114 -217 -218 -233 -231 l-29 -23 -57 45
c-118 92 -227 122 -401 112 -235 -15 -391 -109 -434 -263 -6 -21 -13 -83 -17
-138 l-6 -100 -49 -35 c-122 -88 -131 -96 -134 -122 -3 -23 1 -28 30 -32 18
-4 58 -7 88 -9 42 -1 56 -6 58 -19 5 -24 -34 -72 -94 -119 -29 -22 -57 -53
-64 -69 -7 -16 -21 -32 -31 -35 -35 -12 -162 -123 -211 -186 -42 -55 -48 -68
-48 -111 0 -52 -1 -52 -63 -63 -79 -13 -86 -86 -17 -174 46 -59 89 -84 133
-79 46 4 40 -13 -52 -150 -43 -65 -86 -132 -96 -151 -46 -91 -92 -326 -80
-407 17 -117 146 -133 475 -59 188 43 178 43 257 -4 38 -22 74 -41 80 -41 20
0 40 -36 73 -130 40 -116 188 -418 259 -527 28 -44 51 -83 51 -87 0 -4 14 -27
30 -52 46 -66 62 -119 64 -216 2 -76 5 -91 25 -111 12 -14 28 -44 35 -68 8
-24 22 -61 31 -81 17 -34 17 -39 2 -71 -12 -24 -15 -48 -11 -83 7 -54 -8 -85
-108 -239 -88 -136 -161 -268 -199 -360 -44 -108 -131 -382 -159 -500 -11 -44
-33 -127 -51 -185 -68 -230 -76 -366 -26 -470 52 -110 117 -482 117 -679 1
-58 7 -137 14 -176 12 -59 12 -74 0 -97 -18 -35 -18 -79 1 -104 25 -34 17 -52
-44 -95 -33 -23 -62 -52 -65 -64 -7 -29 -137 -105 -241 -140 -44 -15 -97 -36
-117 -46 -21 -11 -44 -19 -53 -19 -31 0 -75 -31 -90 -63 -9 -17 -22 -43 -30
-57 -39 -66 -6 -127 82 -153 28 -8 69 -25 93 -37 29 -15 75 -25 134 -31 50 -5
103 -12 118 -15 29 -7 109 16 173 50 43 23 62 24 365 17 234 -5 274 -1 307 31
27 27 27 28 27 178 0 82 4 150 7 150 13 0 49 -86 49 -118 0 -17 9 -46 19 -64
10 -18 22 -51 26 -72 3 -22 22 -70 41 -108 19 -37 34 -72 34 -78 0 -6 16 -45
35 -86 19 -41 35 -90 35 -110 0 -19 7 -48 15 -65 19 -36 14 -46 -50 -96 -27
-22 -56 -52 -64 -67 -23 -43 -256 -186 -302 -186 -27 0 -60 -18 -82 -46 -12
-16 -53 -34 -131 -58 -62 -20 -125 -46 -141 -58 -61 -48 -85 -169 -44 -222 23
-29 113 -78 199 -108 93 -32 231 -57 361 -63 135 -7 166 -1 289 50 81 34 205
44 295 23 49 -12 93 -12 245 -3 197 12 242 23 218 53 -12 15 -11 16 5 3 21
-16 40 -4 63 41 13 24 13 60 5 246 -14 298 -9 280 -198 717 -48 109 -88 225
-127 365 -151 540 -224 736 -344 934 -23 37 -42 72 -42 77 0 8 -139 150 -177
180 -18 15 -19 22 -11 74 13 84 43 135 190 321 247 313 338 450 416 629 19 44
47 98 61 119 14 22 39 62 55 90 16 28 69 110 117 182 140 210 192 326 209 469
10 75 -3 238 -22 284 -6 14 -14 59 -18 99 -6 59 -12 78 -33 100 -41 44 -94
127 -100 160 -3 17 -20 53 -38 82 -28 46 -30 54 -19 80 15 35 0 88 -32 116
-11 11 -41 50 -65 87 -38 60 -43 72 -35 100 13 49 0 89 -62 179 l-56 83 0 90
c0 50 -5 144 -10 210 -22 277 -32 457 -26 462 3 4 34 10 68 15 37 5 73 16 88
28 14 11 48 31 76 44 61 28 96 72 118 145 21 73 20 148 -3 229 -11 37 -22 83
-26 104 -10 62 -95 124 -260 188 -33 13 -76 36 -95 51 -20 15 -157 88 -306
163 -267 133 -338 177 -360 219 -6 12 -14 72 -18 134 l-6 111 38 31 c70 55
276 202 362 259 259 169 930 715 1020 830 32 40 27 119 -9 168 -76 104 -158
139 -233 100z m120 -31 c-3 -3 -9 2 -12 12 -6 14 -5 15 5 6 7 -7 10 -15 7 -18z
m10 -35 c45 -33 82 -94 82 -137 0 -31 -48 -80 -263 -267 -118 -102 -160 -141
-129 -122 4 2 14 0 22 -5 11 -7 7 -8 -13 -5 -24 4 -42 -6 -105 -58 -162 -133
-360 -279 -597 -441 -55 -37 -143 -100 -195 -138 -52 -39 -109 -81 -127 -94
-60 -44 -63 -50 -49 -86 8 -17 17 -74 21 -126 8 -99 22 -135 66 -169 36 -28
189 -118 229 -135 99 -42 335 -162 382 -193 29 -20 98 -57 153 -81 115 -50
192 -97 199 -121 3 -9 10 -37 15 -62 6 -25 17 -71 26 -104 13 -47 15 -70 7
-116 -18 -103 -34 -128 -99 -156 -31 -14 -69 -34 -85 -45 -17 -12 -52 -22 -93
-26 -87 -8 -99 -20 -91 -92 17 -155 28 -328 34 -531 l7 -225 50 -73 c77 -113
79 -117 66 -168 l-11 -43 65 -96 c90 -134 89 -130 69 -164 -17 -29 -17 -29 24
-91 31 -46 42 -72 42 -101 0 -30 5 -42 25 -55 14 -9 29 -33 35 -55 6 -22 20
-44 33 -50 31 -17 37 -28 37 -72 0 -21 10 -66 22 -100 19 -53 22 -82 22 -202
0 -121 -4 -149 -24 -205 -36 -101 -71 -166 -178 -326 -55 -82 -109 -168 -120
-191 -12 -23 -27 -45 -33 -49 -6 -4 -34 -55 -61 -113 -100 -217 -172 -330
-355 -562 -253 -320 -269 -348 -274 -472 -3 -72 6 -91 47 -101 17 -5 30 -19
40 -42 10 -23 26 -40 43 -47 21 -7 47 -43 105 -141 104 -177 183 -369 257
-626 22 -80 65 -228 94 -330 46 -162 92 -293 114 -325 4 -5 17 -37 30 -70 13
-33 46 -111 73 -172 64 -148 84 -247 97 -473 11 -202 8 -217 -42 -254 -26 -19
-47 -22 -210 -27 -144 -5 -197 -3 -256 9 -96 20 -197 7 -316 -43 -83 -34 -89
-35 -214 -35 -214 0 -454 62 -529 136 -36 36 -36 50 -2 131 16 36 25 43 62 53
113 31 206 68 234 93 18 15 52 33 76 41 23 7 89 41 145 74 77 46 128 86 208
165 58 59 105 114 105 124 0 10 -6 27 -14 38 -7 11 -16 43 -20 72 -4 29 -24
86 -47 131 -36 71 -115 280 -141 372 -22 79 -32 108 -59 170 -47 104 -54 115
-76 118 -32 5 -37 -23 -35 -218 0 -96 -2 -191 -6 -210 l-8 -35 -84 -8 c-47 -5
-137 -7 -200 -5 -286 8 -319 5 -395 -31 -76 -35 -61 -35 -255 -13 -41 5 -93
18 -115 29 -22 11 -57 23 -78 27 -23 4 -43 16 -53 31 -15 23 -15 27 2 51 27
38 32 47 38 67 3 9 14 17 23 17 10 0 50 15 89 34 39 18 95 41 125 50 30 9 97
40 149 69 78 43 98 59 113 90 10 21 24 40 32 43 8 4 12 11 8 17 -4 6 -1 7 6 3
15 -10 53 23 44 37 -3 5 -1 7 4 4 13 -8 34 15 36 40 0 10 -10 33 -23 51 l-25
33 23 40 c23 39 23 42 7 88 -10 32 -16 85 -16 157 -1 217 -64 595 -122 734
-29 69 -32 83 -30 175 2 102 2 104 82 374 17 57 31 109 31 116 0 24 91 317
126 408 59 152 143 303 302 545 l54 83 -16 41 c-18 43 -19 40 28 103 6 8 -1
31 -21 66 -17 30 -33 71 -36 92 -3 21 -17 51 -31 68 -22 26 -26 40 -26 98 0
82 -31 178 -82 253 -132 195 -274 481 -369 743 -12 31 -22 42 -49 50 -41 13
-91 41 -132 74 -29 24 -33 24 -87 12 -222 -50 -348 -73 -426 -78 -82 -5 -92
-3 -117 17 -26 20 -28 27 -28 88 0 37 11 115 24 174 27 117 70 205 163 335 86
120 117 186 110 236 -5 38 -34 77 -57 77 -19 0 -60 -44 -60 -65 0 -12 -6 -28
-14 -34 -19 -16 -43 -3 -85 45 -41 46 -39 76 8 85 18 4 45 16 60 27 22 16 26
27 26 68 0 44 6 56 48 110 52 67 157 154 185 154 27 0 38 12 51 53 9 27 24 44
56 63 64 37 117 106 123 160 7 61 -7 74 -79 74 -32 0 -60 4 -63 9 -4 5 23 28
59 50 35 22 69 50 75 60 5 11 10 62 10 114 0 168 42 246 163 305 90 44 153 55
303 51 127 -4 132 -5 205 -41 47 -23 91 -54 117 -83 22 -25 49 -45 59 -45 10
0 136 119 297 281 213 215 275 284 265 291 -11 8 -11 9 1 5 11 -3 127 89 180
143 43 44 521 450 555 471 42 27 76 24 123 -11z m-201 -27 c-4 -3 -10 -3 -14
0 -3 4 0 7 7 7 7 0 10 -3 7 -7z m-90 -67 c0 -8 -5 -14 -11 -13 -6 1 -10 -4 -8
-11 1 -8 -2 -11 -8 -7 -8 5 -6 13 6 26 21 23 21 23 21 5z m-107 -90 c0 -3 -5
-8 -12 -12 -7 -4 -8 -3 -4 4 7 12 16 16 16 8z m480 -20 c0 -3 -5 -8 -12 -12
-7 -4 -8 -3 -4 4 7 12 16 16 16 8z m-63 -59 c0 -8 -6 -14 -14 -14 -9 0 -10 4
-2 14 6 7 12 13 14 13 1 0 2 -6 2 -13z m-77 -70 c-19 -19 -38 -33 -42 -33 -4
1 -14 -8 -23 -19 -16 -20 -16 -20 -5 2 6 13 20 28 32 34 12 6 31 20 42 30 11
11 22 19 25 19 3 0 -10 -15 -29 -33z m-503 6 c-4 -3 -10 -3 -14 0 -3 4 0 7 7
7 7 0 10 -3 7 -7z m-31 -25 c4 -7 3 -8 -4 -4 -7 4 -12 2 -12 -5 0 -7 -3 -10
-6 -6 -6 5 3 27 11 27 2 0 7 -5 11 -12z m-133 -117 c-12 -10 -19 -22 -15 -26
4 -5 1 -5 -6 -1 -11 6 -10 12 5 26 10 11 23 19 28 19 6 0 0 -8 -12 -18z m504
-18 c-4 -3 -7 0 -7 7 0 7 3 10 7 7 3 -4 3 -10 0 -14z m-21 -5 c4 -7 4 -10 -1
-6 -4 4 -15 2 -24 -5 -14 -11 -14 -10 -2 6 16 20 18 21 27 5z m-516 -11 c0 -2
-15 -13 -32 -26 l-33 -22 28 25 c26 24 37 31 37 23z m-83 -74 c-4 -3 -7 0 -7
7 0 7 3 10 7 7 3 -4 3 -10 0 -14z m446 -38 c-3 -9 -8 -14 -10 -11 -3 3 -2 9 2
15 9 16 15 13 8 -4z m-490 -10 c-3 -9 -8 -14 -10 -11 -3 3 -2 9 2 15 9 16 15
13 8 -4z m-26 -22 c-4 -3 -10 -3 -14 0 -3 4 0 7 7 7 7 0 10 -3 7 -7z m493 3
c0 -3 -5 -8 -12 -12 -7 -4 -8 -3 -4 4 7 12 16 16 16 8z m-40 -31 c-7 -9 -15
-13 -19 -10 -3 3 1 10 9 15 21 14 24 12 10 -5z m-530 -49 c0 -3 -5 -8 -12 -12
-7 -4 -8 -3 -4 4 7 12 16 16 16 8z m460 0 c0 -3 -5 -8 -12 -12 -7 -4 -8 -3 -4
4 7 12 16 16 16 8z m-490 -41 c-7 -8 -17 -15 -23 -15 -6 0 -2 7 9 15 25 19 30
19 14 0z m250 -129 c0 -3 -5 -8 -12 -12 -7 -4 -8 -3 -4 4 7 12 16 16 16 8z
m-380 -10 c0 -2 -12 -11 -27 -20 l-28 -17 24 20 c23 21 31 25 31 17z m307 -63
c-4 -3 -10 -3 -14 0 -3 4 0 7 7 7 7 0 10 -3 7 -7z m-455 -70 c-6 -2 -9 -10 -6
-15 4 -7 2 -8 -5 -4 -13 9 -5 26 12 25 9 0 8 -2 -1 -6z m318 -7 c0 -2 -7 -7
-16 -10 -8 -3 -12 -2 -9 4 6 10 25 14 25 6z m-410 -90 c0 -3 -5 -8 -12 -12 -7
-4 -8 -3 -4 4 7 12 16 16 16 8z m100 -130 c0 -3 -5 -8 -12 -12 -7 -4 -8 -3 -4
4 7 12 16 16 16 8z m-43 -103 c-4 -3 -7 0 -7 7 0 7 3 10 7 7 3 -4 3 -10 0 -14z
m-1210 -560 c-4 -3 -10 -3 -14 0 -3 4 0 7 7 7 7 0 10 -3 7 -7z m-140 -120 c-4
-3 -7 0 -7 7 0 7 3 10 7 7 3 -4 3 -10 0 -14z m-80 -120 c-4 -3 -7 0 -7 7 0 7
3 10 7 7 3 -4 3 -10 0 -14z m13 -47 c0 -3 -5 -8 -12 -12 -7 -4 -8 -3 -4 4 7
12 16 16 16 8z m-63 -73 c-4 -3 -10 -3 -14 0 -3 4 0 7 7 7 7 0 10 -3 7 -7z
m-32 -123 c3 -5 4 -10 1 -10 -3 0 -8 5 -11 10 -3 6 -4 10 -1 10 3 0 8 -4 11
-10z m145 -55 c0 -5 -5 -3 -10 5 -5 8 -10 20 -10 25 0 6 5 3 10 -5 5 -8 10
-19 10 -25z m2337 -1502 c-4 -3 -7 0 -7 7 0 7 3 10 7 7 3 -4 3 -10 0 -14z
m-480 -3200 c-4 -3 -7 0 -7 7 0 7 3 10 7 7 3 -4 3 -10 0 -14z m-1137 -477 c0
-3 -5 -8 -12 -12 -7 -4 -8 -3 -4 4 7 12 16 16 16 8z m1747 -1558 c-3 -8 -6 -5
-6 6 -1 11 2 17 5 13 3 -3 4 -12 1 -19z m0 -45 c-4 -3 -7 0 -7 7 0 7 3 10 7 7
3 -4 3 -10 0 -14z"/>
<path d="M3125 7705 c-34 -33 -36 -81 -6 -150 26 -59 90 -85 211 -85 105 0
119 15 64 71 -75 78 -216 189 -239 189 -3 0 -17 -11 -30 -25z m62 -12 c-4 -3
-10 -3 -14 0 -3 4 0 7 7 7 7 0 10 -3 7 -7z m60 -89 c78 -64 89 -84 44 -84 -54
0 -106 28 -124 66 -21 43 -22 74 -3 74 8 0 45 -25 83 -56z m57 -116 c-3 -4
-11 -5 -19 -1 -21 7 -19 12 4 10 11 0 18 -5 15 -9z m33 -5 c-4 -3 -7 0 -7 7 0
7 3 10 7 7 3 -4 3 -10 0 -14z"/>
<path d="M2418 7263 c-82 -85 -183 -225 -235 -327 -20 -40 -23 -53 -14 -72 6
-13 15 -24 21 -24 22 0 73 60 113 135 37 70 45 80 67 77 30 -3 37 2 79 56 18
23 40 42 50 42 9 0 32 -21 49 -46 34 -48 64 -56 85 -23 17 28 -1 107 -34 140
-16 16 -29 40 -29 54 0 13 -4 35 -10 49 -18 47 -49 34 -142 -61z m92 -21 c0
-15 -36 -42 -55 -42 -11 0 -4 25 12 42 21 23 43 23 43 0z m77 -49 c-4 -3 -7 0
-7 7 0 7 3 10 7 7 3 -4 3 -10 0 -14z"/>
<path d="M2745 7043 c-16 -2 -37 -14 -47 -25 -17 -19 -17 -22 -2 -55 20 -41
47 -58 92 -58 33 0 33 0 -12 26 -46 25 -66 55 -49 72 5 5 45 12 89 15 43 3
76 8 71 10 -13 6 -102 18 -142 15z"/>
<path d="M4980 9600 c0 -5 5 -10 10 -10 6 0 10 5 10 10 0 6 -4 10 -10 10 -5
0 -10 -4 -10 -10z"/>
<path d="M4967 9563 c-4 -3 -7 -11 -7 -17 0 -6 5 -5 12 2 6 6 9 14 7 17 -3 3
-9 2 -12 -2z"/>
<path d="M4870 9330 c-9 -6 -10 -10 -3 -10 6 0 15 5 18 10 8 12 4 12 -15 0z"/>
<path d="M4830 9280 c-9 -6 -10 -10 -3 -10 6 0 15 5 18 10 8 12 4 12 -15 0z"/>
<path d="M2830 8720 c-9 -6 -10 -10 -3 -10 6 0 15 5 18 10 8 12 4 12 -15 0z"/>
<path d="M2837 8683 c-4 -3 -7 -11 -7 -17 0 -6 5 -5 12 2 6 6 9 14 7 17 -3 3
-9 2 -12 -2z"/>
<path d="M2740 8600 c-9 -6 -10 -10 -3 -10 6 0 15 5 18 10 8 12 4 12 -15 0z"/>
<path d="M2687 8563 c-4 -3 -7 -11 -7 -17 0 -6 5 -5 12 2 6 6 9 14 7 17 -3 3
-9 2 -12 -2z"/>
<path d="M2670 8520 c-9 -6 -10 -10 -3 -10 6 0 15 5 18 10 8 12 4 12 -15 0z"/>
<path d="M1650 7940 c-9 -6 -10 -10 -3 -10 6 0 15 5 18 10 8 12 4 12 -15 0z"/>
<path d="M1607 7903 c-4 -3 -7 -11 -7 -17 0 -6 5 -5 12 2 6 6 9 14 7 17 -3 3
-9 2 -12 -2z"/>
<path d="M1590 7860 c-9 -6 -10 -10 -3 -10 6 0 15 5 18 10 8 12 4 12 -15 0z"/>
<path d="M1340 7100 c-9 -6 -10 -10 -3 -10 6 0 15 5 18 10 8 12 4 12 -15 0z"/>
<path d="M1330 7060 c-9 -6 -10 -10 -3 -10 6 0 15 5 18 10 8 12 4 12 -15 0z"/>
<path d="M2540 4230 c-9 -6 -10 -10 -3 -10 6 0 15 5 18 10 8 12 4 12 -15 0z"/>
<path d="M2060 750 c-9 -6 -10 -10 -3 -10 6 0 15 5 18 10 8 12 4 12 -15 0z"/>
<path d="M2060 705 c-9 -6 -10 -10 -3 -10 6 0 15 5 18 10 8 12 4 12 -15 0z"/>
</g>
</svg>
