<svg xmlns="http://www.w3.org/2000/svg" width="277.000000pt" height="600.000000pt" viewBox="0 0 277.000000 600.000000" preserveAspectRatio="xMidYMid meet">
<g transform="translate(0.000000,600.000000) scale(0.100000,-0.100000)"
fill="#000000" stroke="none">
<path d="M425 5290 c3 -5 8 -10 11 -10 2 0 4 5 4 10 0 6 -5 10 -11 10 -5 0 -7
-4 -4 -10z"/>
<path d="M1072 5124 c-29 -20 -32 -102 -4 -127 22 -20 63 -22 80 -5 9 9 15 9
24 0 16 -16 53 -15 68 3 9 11 16 12 30 3 25 -16 50 5 50 43 0 15 5 31 10 34 6
3 10 15 10 26 0 22 -34 39 -65 32 -11 -3 -26 -4 -32 -4 -18 1 -58 0 -85 -2
-13 0 -32 2 -43 6 -13 4 -29 1 -43 -9z m63 -39 c1 -11 4 -26 9 -33 14 -22 -2
-42 -34 -42 -29 0 -30 1 -30 51 0 49 1 50 28 47 19 -2 27 -9 27 -23z m107 0
c16 -36 -3 -75 -36 -75 -41 0 -60 54 -30 84 23 24 53 20 66 -9z m83 15 c-4 -6
-11 -8 -16 -5 -5 4 -9 -14 -9 -39 0 -25 -4 -46 -10 -46 -5 0 -10 21 -10 46 0
25 -4 43 -9 39 -5 -3 -12 -1 -16 5 -4 6 10 10 35 10 25 0 39 -4 35 -10z"/>
<path d="M1090 5086 c0 -10 9 -16 21 -16 24 0 21 23 -4 28 -10 2 -17 -3 -17
-12z"/>
<path d="M1090 5047 c0 -19 10 -27 26 -20 21 8 17 33 -6 33 -11 0 -20 -6 -20
-13z"/>
<path d="M1193 5093 c-7 -3 -13 -17 -13 -33 0 -28 14 -41 38 -33 6 3 12 17 12
33 0 28 -14 41 -37 33z"/>
<path d="M1563 5072 c-65 -64 -68 -68 -49 -97 13 -19 14 -29 5 -49 -10 -20 -9
-30 4 -49 15 -23 15 -26 -3 -42 -26 -23 -25 -50 0 -75 14 -14 26 -18 38 -12
19 9 95 8 111 -2 14 -9 51 29 51 53 0 10 -6 23 -13 29 -16 14 -16 127 1 144 7
7 12 18 12 25 0 15 -93 113 -108 113 -6 0 -28 -17 -49 -38z m72 -2 c17 -19 17
-21 0 -40 -21 -23 -9 -27 15 -5 15 14 19 13 35 -5 18 -20 18 -21 -2 -42 l-21
-21 -25 29 -24 28 -26 -29 -26 -30 -23 23 -22 22 22 22 c21 22 22 22 36 3 8
-11 18 -17 22 -13 4 5 0 16 -9 26 -15 17 -15 19 0 35 22 22 26 21 48 -3z m-6
-114 c17 -21 4 -45 -22 -38 -31 7 -39 24 -19 39 22 16 27 16 41 -1z m-69 -63
c0 -23 -4 -33 -9 -27 -17 17 -17 64 -1 64 6 0 10 -17 10 -37z m120 1 c0 -13
-4 -24 -9 -24 -11 0 -22 40 -15 52 9 15 24 -2 24 -28z m-60 -4 c0 -5 -7 -10
-15 -10 -8 0 -15 5 -15 10 0 6 7 10 15 10 8 0 15 -4 15 -10z m27 -37 c2 -6
-12 -10 -37 -9 -46 1 -54 13 -12 19 35 5 45 3 49 -10z m-79 -57 c-2 -11 -10
-22 -19 -24 -21 -4 -33 26 -18 44 15 18 41 5 37 -20z m66 11 c8 -13 7 -20 -4
-27 -8 -5 -19 -10 -23 -10 -12 0 -20 28 -13 46 7 19 25 15 40 -9z m64 -11 c-2
-13 -10 -21 -23 -21 -23 0 -33 34 -14 45 20 13 40 -1 37 -24z"/>
<path d="M1602 5061 c-10 -6 -10 -10 2 -20 10 -9 16 -9 21 -1 10 16 -7 31 -23
21z"/>
<path d="M1544 5009 c-10 -17 13 -36 27 -22 12 12 4 33 -11 33 -5 0 -12 -5
-16 -11z"/>
<path d="M1650 5010 c-12 -7 -12 -12 -2 -22 9 -9 15 -9 24 0 8 8 9 15 2 22 -5
5 -15 6 -24 0z"/>
<path d="M1540 4800 c0 -5 5 -10 10 -10 6 0 10 5 10 10 0 6 -4 10 -10 10 -5 0
-10 -4 -10 -10z"/>
<path d="M1600 4800 c0 -5 5 -10 10 -10 6 0 10 5 10 10 0 6 -4 10 -10 10 -5 0
-10 -4 -10 -10z"/>
<path d="M1660 4800 c0 -5 7 -10 16 -10 8 0 12 5 9 10 -3 6 -10 10 -16 10 -5
0 -9 -4 -9 -10z"/>
<path d="M2194 5093 c-12 -2 -32 -15 -44 -28 -20 -21 -22 -28 -12 -50 6 -14
16 -25 22 -25 17 0 11 -36 -10 -55 -27 -24 -25 -61 3 -79 73 -46 169 -14 168
56 0 18 -1 56 0 83 0 40 -5 55 -23 72 -24 22 -67 33 -104 26z m71 -35 c36 -16
44 -56 15 -78 l-23 -17 22 -6 c21 -5 27 -30 15 -61 -11 -28 -68 -39 -109 -22
-59 25 -34 51 30 32 11 -4 26 -2 34 3 21 14 5 41 -24 41 -19 0 -25 5 -25 21 0
15 5 19 19 14 21 -6 46 18 36 36 -7 11 -45 8 -76 -5 -11 -5 -19 -1 -23 9 -4
11 3 20 27 30 40 18 50 18 82 3z"/>
<path d="M525 5053 c-41 -43 -43 -56 -11 -87 16 -14 24 -32 24 -52 -2 -65 48
-98 85 -56 20 22 18 191 -2 216 -22 26 -57 19 -96 -21z m85 -88 c0 -92 -1 -95
-22 -95 -22 0 -23 3 -20 72 l4 73 -21 -19 c-16 -15 -24 -17 -33 -8 -16 16 37
72 69 72 22 0 23 -2 23 -95z"/>
<path d="M263 5060 c-39 -13 -57 -54 -36 -86 12 -20 21 -21 90 -17 42 2 83 9
90 15 17 13 17 62 0 76 -18 16 -107 23 -144 12z m17 -34 c0 -8 2 -20 5 -28 4
-9 -3 -13 -20 -13 -27 0 -27 0 -19 33 7 24 34 31 34 8z m84 2 c5 -10 7 -10 12
0 10 21 24 13 24 -12 0 -28 -15 -43 -24 -24 -5 10 -7 10 -12 1 -10 -22 -24
-14 -24 12 0 34 -20 32 -21 -2 -2 -28 -2 -28 -6 -3 -3 14 -10 28 -17 32 -6 4
6 8 26 8 20 0 39 -6 42 -12z"/>
<path d="M2396 5051 c-21 -23 -20 -57 2 -79 14 -14 33 -17 99 -16 92 2 114 14
109 58 -4 43 -20 50 -110 53 -69 1 -87 -1 -100 -16z m74 -28 c1 -17 1 -17 14
0 11 14 15 15 20 5 5 -10 7 -10 12 0 7 14 64 17 64 2 0 -5 -8 -7 -17 -4 -10 2
-8 -1 5 -7 12 -7 22 -16 22 -20 0 -14 -42 -21 -54 -9 -8 10 -7 12 7 7 21 -8
22 0 2 19 -13 13 -15 12 -21 -11 -7 -29 -23 -34 -25 -7 -1 16 -2 16 -6 0 -6
-25 -22 -22 -28 5 -7 25 -45 35 -45 11 0 -8 7 -14 15 -14 8 0 15 -4 15 -10 0
-16 -40 -12 -46 5 -11 27 4 45 36 45 22 0 30 -5 30 -17z"/>
<path d="M1093 4949 c-7 -7 -13 -37 -13 -66 0 -45 4 -55 24 -68 20 -13 29 -14
46 -5 15 8 25 8 34 1 8 -7 24 -7 45 -1 18 5 38 7 45 4 21 -8 44 23 43 57 -2
39 -68 99 -89 81 -12 -9 -24 -9 -93 4 -18 3 -35 0 -42 -7z m155 -27 c-4 -14 0
-18 16 -18 18 1 21 -5 23 -39 1 -38 1 -38 -5 -7 -9 43 -26 46 -30 5 -5 -54
-22 -37 -22 22 0 34 4 55 11 55 6 0 9 -8 7 -18z m-107 -1 c-32 -9 -38 -28 -9
-27 18 1 24 -5 26 -25 3 -28 -16 -43 -43 -33 -23 9 -18 21 8 20 13 -1 22 5 22
14 0 10 -8 14 -22 12 -19 -3 -23 2 -23 22 0 23 4 26 33 25 29 -1 29 -2 8 -8z
m69 -11 c10 -6 11 -10 3 -10 -7 0 -13 -11 -13 -25 0 -14 5 -25 10 -25 6 0 10
-5 10 -11 0 -6 -8 -9 -17 -7 -12 2 -20 16 -24 41 -8 48 0 57 31 37z"/>
<path d="M494 4820 c-30 -12 -37 -38 -17 -63 23 -28 60 -33 84 -11 14 12 19
13 19 4 0 -7 3 -11 6 -7 3 3 16 2 29 -3 18 -7 27 -4 40 10 20 22 13 69 -10 71
-8 1 -21 2 -27 3 -7 1 -23 -2 -36 -8 -15 -6 -26 -6 -30 0 -9 12 -33 14 -58 4z
m61 -40 c0 -10 -10 -15 -30 -15 -18 0 -31 6 -33 15 -2 11 7 15 30 15 23 0 33
-5 33 -15z m98 14 c13 -13 -7 -34 -33 -34 -30 0 -45 13 -35 30 7 11 58 14 68
4z"/>
<path d="M608 4783 c6 -2 18 -2 25 0 6 3 1 5 -13 5 -14 0 -19 -2 -12 -5z"/>
<path d="M2144 4806 c-28 -23 -28 -24 -10 -50 14 -22 24 -27 49 -24 18 1 35 7
39 13 5 7 14 6 28 -2 28 -18 54 -16 73 5 22 24 21 45 -1 65 -22 20 -53 22 -70
5 -9 -9 -18 -9 -37 0 -35 16 -40 15 -71 -12z m71 -27 c0 -18 -43 -25 -59 -9
-8 8 -7 13 4 20 21 13 55 6 55 -11z m98 -10 c-13 -13 -55 -8 -60 8 -3 6 8 13
24 15 33 4 52 -7 36 -23z"/>
<path d="M1033 4703 c9 -2 25 -2 35 0 9 3 1 5 -18 5 -19 0 -27 -2 -17 -5z"/>
<path d="M1477 4703 c79 -2 207 -2 285 0 79 1 15 3 -142 3 -157 0 -221 -2
-143 -3z"/>
<path d="M2243 4703 c9 -2 23 -2 30 0 6 3 -1 5 -18 5 -16 0 -22 -2 -12 -5z"/>
<path d="M2348 4703 c6 -2 18 -2 25 0 6 3 1 5 -13 5 -14 0 -19 -2 -12 -5z"/>
<path d="M2493 4703 c9 -2 23 -2 30 0 6 3 -1 5 -18 5 -16 0 -22 -2 -12 -5z"/>
<path d="M2738 4703 c7 -3 16 -2 19 1 4 3 -2 6 -13 5 -11 0 -14 -3 -6 -6z"/>
<path d="M1403 4683 c9 -2 23 -2 30 0 6 3 -1 5 -18 5 -16 0 -22 -2 -12 -5z"/>
<path d="M1660 4686 c0 -2 9 -6 20 -9 11 -3 18 -1 14 4 -5 9 -34 13 -34 5z"/>
<path d="M2110 4683 c-103 -39 -135 -71 -149 -149 -5 -27 -15 -50 -22 -53 -27
-9 -58 -50 -54 -71 6 -29 42 -60 72 -60 17 0 23 -6 23 -22 0 -13 9 -38 20 -56
11 -18 20 -36 20 -40 0 -4 -28 -36 -61 -72 -79 -85 -109 -144 -109 -212 1 -31
7 -61 15 -72 8 -11 15 -16 15 -12 0 5 6 3 14 -3 14 -12 105 -7 135 7 9 5 23 8
31 7 8 -1 23 -3 33 -3 9 -1 17 -6 17 -11 0 -11 81 -184 89 -191 16 -14 41 -71
41 -97 0 -15 7 -37 15 -47 25 -33 17 -75 -28 -150 -24 -39 -48 -84 -54 -101
-6 -16 -15 -39 -19 -50 -4 -11 -8 -22 -8 -25 -1 -3 -4 -9 -7 -15 -4 -5 -5 -18
-4 -27 2 -12 -4 -18 -18 -19 -21 0 -21 -1 -2 -9 17 -6 14 -8 -15 -12 l-35 -5
37 -1 c33 -2 38 1 44 26 12 55 68 186 100 232 51 74 61 142 25 165 -6 3 -11
21 -11 38 0 18 -6 42 -13 54 -6 12 -28 50 -48 85 -19 35 -43 83 -53 108 -9 25
-28 54 -42 66 -24 19 -29 20 -77 7 -68 -17 -141 -17 -156 1 -15 17 0 109 23
153 15 29 26 41 108 132 l48 52 -25 37 c-27 40 -31 63 -14 94 11 20 9 21 -29
15 -30 -5 -45 -3 -62 11 -19 16 -21 22 -11 40 6 12 25 29 41 37 25 13 30 22
30 53 0 76 57 127 168 151 67 14 126 1 174 -39 27 -23 38 -42 51 -92 21 -85
28 -138 17 -138 -10 0 -15 18 -24 84 -8 60 -47 128 -85 150 -53 31 -159 20
-241 -24 -22 -12 -40 -61 -40 -106 0 -27 -6 -37 -28 -48 -33 -17 -58 -44 -48
-53 3 -4 28 -6 56 -4 l49 2 -2 -53 c-2 -43 2 -58 21 -78 12 -13 22 -29 22 -34
0 -10 -100 -131 -119 -146 -34 -26 -80 -157 -64 -182 7 -12 72 -9 137 6 54 13
61 12 91 -5 22 -13 36 -32 45 -61 13 -47 49 -119 92 -187 15 -25 28 -57 28
-73 0 -15 9 -44 20 -63 26 -45 18 -79 -37 -168 -43 -67 -68 -132 -107 -274
-31 -109 -31 -120 -7 -198 17 -54 26 -125 36 -267 3 -47 2 -48 -49 -86 -28
-22 -73 -48 -100 -58 -55 -22 -66 -38 -42 -62 12 -12 33 -16 84 -15 213 6 258
9 270 16 9 6 11 24 6 68 -11 98 11 74 69 -75 53 -137 52 -130 20 -162 -38 -39
-98 -77 -158 -99 -91 -33 -107 -62 -51 -89 73 -35 147 -39 241 -12 28 7 59 10
70 6 28 -10 143 0 153 14 19 24 -4 159 -42 251 -20 50 -39 97 -41 105 -7 30
-64 206 -80 250 -22 61 -54 110 -88 139 -23 19 -27 29 -22 50 7 28 44 86 81
126 34 36 76 101 115 175 19 36 51 90 71 122 21 31 42 76 47 100 11 47 4 128
-11 128 -5 0 -7 4 -4 9 6 9 -15 61 -26 61 -6 0 -21 50 -22 75 -1 6 -10 23 -20
38 -10 15 -20 39 -22 53 -1 14 -9 35 -17 47 -17 27 -28 208 -12 214 6 2 11
-33 13 -89 2 -73 7 -99 23 -120 10 -15 19 -40 19 -56 0 -16 8 -37 19 -46 10
-9 21 -34 24 -55 2 -22 17 -56 31 -77 23 -34 26 -48 26 -126 0 -90 -6 -107
-64 -193 -45 -65 -70 -115 -66 -131 1 -4 -2 -10 -7 -13 -5 -3 -26 -31 -48 -61
-22 -30 -59 -79 -82 -108 -24 -30 -43 -62 -43 -72 0 -27 65 -90 92 -89 22 1
21 1 -4 11 -16 5 -28 16 -28 24 0 8 -6 14 -14 14 -7 0 -16 11 -18 25 -3 14 -1
25 3 25 5 0 6 7 3 15 -4 10 0 15 16 15 14 0 19 4 14 12 -5 8 -1 9 12 4 15 -6
17 -5 7 5 -15 15 -17 33 -3 24 6 -3 10 -1 10 5 0 6 5 8 10 5 6 -3 10 -1 10 4
0 6 -5 11 -12 11 -8 0 -9 3 -1 11 6 6 43 11 82 12 40 0 75 5 78 10 4 6 -17 8
-55 4 -34 -3 -65 -1 -68 4 -3 5 -1 9 4 9 5 0 12 9 15 19 2 11 15 21 28 24 l24
4 -23 2 c-13 0 -20 6 -17 11 3 6 17 7 31 4 14 -4 24 -2 24 5 0 6 -7 8 -15 5
-8 -4 -15 -1 -15 4 0 6 12 13 28 15 l27 4 -28 2 c-26 1 -27 2 -12 24 8 13 12
27 8 30 -3 4 -1 7 5 7 6 0 21 18 32 39 11 22 28 45 37 50 10 6 14 11 10 11 -5
0 -1 10 7 22 12 17 16 49 16 129 0 95 -3 113 -25 157 -14 28 -25 57 -25 66 0
8 -9 30 -20 48 -11 18 -20 41 -20 52 0 10 -9 33 -19 50 -14 23 -20 57 -24 131
-4 102 -2 125 14 125 4 0 5 -8 2 -17 -6 -16 -5 -17 13 -3 10 8 32 28 48 45 25
27 28 35 24 85 -5 72 -32 110 -101 144 -30 14 -59 26 -65 26 -7 0 -12 4 -12 8
0 8 -73 44 -95 47 -33 3 -48 25 -57 81 -12 77 -37 131 -81 175 -36 36 -38 36
-119 37 -46 1 -90 -2 -98 -5z m170 -72 c33 -20 36 -26 56 -88 11 -34 15 -70
11 -100 -4 -39 -2 -50 16 -65 11 -10 34 -18 52 -18 30 0 114 -37 165 -73 14
-9 32 -17 41 -17 36 0 77 -88 53 -113 -6 -6 -52 23 -82 51 -27 24 -80 17 -114
-16 -22 -20 -28 -35 -28 -70 0 -49 16 -86 34 -79 7 3 18 -4 24 -14 7 -10 23
-19 36 -19 29 0 31 -6 35 -100 2 -50 9 -85 21 -105 9 -16 16 -35 13 -41 -2 -7
5 -27 16 -45 12 -19 21 -41 21 -50 0 -9 16 -46 35 -82 20 -37 33 -67 31 -67
-3 0 1 -14 8 -32 9 -20 11 -40 6 -52 -5 -12 -11 -33 -14 -47 -3 -15 -22 -51
-42 -80 -20 -30 -56 -91 -79 -137 -24 -45 -70 -115 -103 -155 -64 -79 -93
-132 -89 -159 2 -9 15 -28 29 -41 54 -50 83 -113 148 -323 6 -17 10 -36 10
-43 0 -7 16 -47 35 -89 42 -89 54 -137 55 -213 l0 -57 -57 -4 c-32 -3 -68 -2
-80 3 -14 5 -41 2 -74 -7 -29 -9 -73 -16 -98 -15 -54 0 -133 22 -138 37 -2 6
28 23 67 38 38 15 70 31 70 35 0 4 15 15 33 26 17 10 45 32 60 48 25 25 28 34
22 65 -4 20 -12 40 -18 44 -7 4 -8 8 -3 8 5 0 4 6 -1 13 -6 6 -20 41 -32 76
-12 36 -32 78 -43 94 -18 25 -22 27 -36 14 -8 -9 -16 -36 -17 -61 -1 -26 -4
-49 -7 -51 -2 -3 -47 -7 -99 -10 -52 -3 -114 -7 -139 -9 -67 -6 -110 24 -55
38 14 4 27 6 30 7 15 1 61 31 96 64 l40 37 -6 111 c-3 62 -13 144 -22 182 -23
102 -26 142 -15 173 5 15 17 56 27 92 26 97 52 158 95 226 49 74 64 139 42
180 -9 16 -19 48 -24 72 -4 24 -16 55 -27 70 -29 42 -65 111 -91 175 -18 47
-31 62 -67 84 -36 21 -49 24 -67 15 -13 -5 -48 -13 -79 -17 -55 -7 -57 -7 -57
16 0 51 21 92 82 162 104 117 107 127 69 186 -9 14 -14 40 -12 63 3 48 -12 68
-52 68 l-30 0 27 26 c19 19 26 37 26 64 0 51 25 78 96 105 65 24 121 23 164
-4z m170 -233 c19 -6 84 -36 143 -66 92 -48 109 -60 114 -84 3 -16 9 -31 14
-33 14 -9 -3 -79 -24 -102 -11 -13 -29 -23 -40 -23 -16 0 -14 4 12 29 32 30
38 64 22 119 -8 32 -213 139 -282 148 -32 4 -49 11 -49 20 0 15 18 13 90 -8z
m130 -207 c0 -13 -25 -20 -47 -15 -11 3 -25 -1 -32 -9 -12 -15 -18 -63 -10
-82 2 -5 0 -12 -6 -15 -6 -3 -11 13 -13 37 -3 35 2 48 22 68 24 24 86 36 86
16z m50 -51 c8 -56 -30 -111 -73 -106 -32 3 -31 21 1 21 18 0 30 7 37 23 5 12
13 22 17 22 12 0 10 38 -2 45 -6 4 -7 11 -4 17 7 12 21 -1 24 -22z m-90 -12
l9 -23 0 24 c1 17 5 22 17 17 9 -3 20 -6 25 -6 13 0 11 -36 -3 -48 -15 -11
-78 -4 -78 10 0 5 5 6 10 3 6 -3 10 -1 10 5 0 6 -7 13 -15 16 -8 4 -12 10 -9
15 9 16 24 10 34 -13z"/>
<path d="M2122 4185 c-39 -42 -67 -98 -59 -119 10 -24 25 -19 42 13 17 34 42
45 79 35 21 -5 26 -2 32 20 6 27 -27 86 -49 86 -7 0 -27 -16 -45 -35z m58 0
c0 -8 4 -15 9 -15 14 0 23 -32 12 -43 -5 -5 -12 -1 -16 12 -8 26 -35 27 -42 2
-3 -11 -11 -17 -18 -15 -8 4 -18 -8 -26 -30 -13 -35 -29 -49 -29 -23 1 17 19
48 55 90 31 38 55 47 55 22z"/>
<path d="M2560 4095 c0 -9 5 -15 11 -13 6 2 11 8 11 13 0 5 -5 11 -11 13 -6 2
-11 -4 -11 -13z"/>
<path d="M61 3844 c0 -11 3 -14 6 -6 3 7 2 16 -1 19 -3 4 -6 -2 -5 -13z"/>
<path d="M1112 3558 c-7 -7 -12 -18 -12 -24 0 -7 -13 -28 -30 -46 -20 -21 -30
-43 -30 -63 0 -29 22 -72 44 -87 7 -4 12 -54 12 -123 1 -106 0 -115 -17 -115
-27 0 -24 -20 4 -21 15 -1 10 -4 -13 -9 l-35 -7 32 -2 c37 -1 55 -20 21 -22
-17 -1 -18 -3 -5 -6 49 -13 -23 -32 -90 -24 -6 1 -14 -2 -17 -7 -3 -5 22 -8
56 -8 40 1 62 -3 65 -11 3 -7 -2 -13 -11 -13 -24 0 -19 -17 7 -24 18 -5 20 -8
7 -16 -8 -5 -10 -10 -5 -11 6 -1 -6 -5 -25 -9 l-35 -7 40 -2 c29 -1 36 -4 28
-12 -7 -7 -9 -25 -6 -40 4 -24 2 -29 -13 -29 -15 0 -16 -2 -5 -9 8 -5 11 -16
8 -25 -4 -11 -1 -16 10 -16 12 0 13 -3 4 -14 -7 -9 -8 -17 -2 -20 5 -3 12 0
15 6 3 7 4 1 2 -14 -3 -25 0 -28 23 -27 17 1 20 3 9 6 -21 5 -24 22 -5 24 13
1 204 1 225 0 18 -1 15 -19 -5 -24 -12 -3 -8 -5 9 -6 22 -1 27 4 31 27 l4 27
2 -27 c1 -25 5 -28 34 -27 21 1 25 3 12 6 -26 6 -44 23 -24 24 88 3 241 -1
250 -7 7 -4 9 -3 5 4 -4 6 7 13 26 18 29 6 30 8 13 15 -18 7 -18 8 -2 8 12 1
15 5 11 13 -16 25 -13 58 4 58 15 1 15 2 -1 11 -15 9 -17 18 -12 45 4 23 2 34
-6 34 -9 0 -9 3 0 14 7 9 23 13 39 10 21 -3 23 -2 12 6 -8 5 -23 10 -32 10
-22 0 -24 19 -3 21 29 3 33 4 42 13 4 5 -3 6 -17 3 -14 -3 -32 -2 -40 3 -12 7
-10 11 10 19 18 7 20 10 8 10 -26 1 -22 19 5 24 22 4 22 4 -2 6 -20 1 -21 3
-11 16 7 8 8 15 3 15 -6 0 -11 88 -12 222 -1 144 -5 226 -12 235 -16 18 -579
19 -597 1z m588 -403 l0 -395 -290 0 -290 0 0 294 0 294 -25 16 c-20 13 -25
25 -25 56 0 31 5 43 25 56 14 9 25 26 25 38 0 13 3 26 7 29 3 4 134 7 290 7
l283 0 0 -395z"/>
<path d="M1138 3513 c-2 -13 6 -21 27 -28 57 -19 60 -107 5 -128 l-30 -11 0
-288 0 -288 270 0 270 0 0 380 0 380 -269 0 c-249 0 -270 -1 -273 -17z m509
-16 c3 -3 7 -85 9 -182 2 -98 7 -181 10 -186 3 -5 -5 -9 -18 -10 -23 -1 -23
-1 2 -9 14 -4 19 -8 11 -9 -11 -1 -11 -4 -1 -16 10 -12 9 -15 -6 -15 -17 0
-17 -1 2 -15 19 -14 19 -14 0 -15 -20 0 -20 0 0 -15 12 -9 14 -14 6 -15 -9 0
-11 -7 -7 -20 5 -16 2 -20 -17 -19 -25 0 -71 17 -50 18 29 2 9 19 -23 19 -19
0 -35 -4 -35 -9 0 -5 3 -8 8 -8 25 4 22 -4 -5 -16 -18 -8 -33 -21 -33 -30 0
-8 -4 -15 -8 -15 -7 0 -8 -54 -2 -70 1 -3 2 -8 1 -12 0 -5 6 -8 15 -8 10 0 14
-6 10 -15 -3 -8 -2 -14 2 -14 4 1 34 0 67 -1 l60 -2 -45 -9 c-61 -12 -170 -5
-181 12 -6 10 -9 7 -10 -11 -1 -23 -2 -23 -9 5 -4 17 -8 22 -9 13 -1 -12 -10
-18 -28 -19 -178 -7 -209 -5 -182 12 11 7 10 9 -3 9 -21 0 -21 0 -8 37 10 27
9 27 -6 8 -15 -19 -15 -19 -9 10 4 17 8 35 10 42 2 6 -1 14 -8 17 -7 2 -6 5 4
5 9 1 16 8 16 16 0 8 -4 12 -9 9 -4 -3 -7 20 -5 50 1 31 -2 56 -7 56 -5 0 -3
7 4 15 10 12 10 15 -1 15 -11 0 -11 2 1 10 13 9 13 10 0 11 -10 0 -8 3 5 9 11
5 15 9 8 9 -14 1 -16 181 -2 181 16 0 58 54 65 82 4 19 -1 41 -14 66 l-19 37
219 -2 c121 -1 222 -4 225 -6z m-17 -549 c24 -26 26 -65 4 -96 -9 -13 -11 -22
-4 -22 6 0 13 7 17 16 5 13 7 13 14 2 5 -7 9 -22 9 -33 0 -14 -3 -16 -9 -7 -4
7 -32 15 -62 17 -43 3 -59 9 -77 30 -57 67 47 158 108 93z"/>
<path d="M1203 3133 c9 -2 23 -2 30 0 6 3 -1 5 -18 5 -16 0 -22 -2 -12 -5z"/>
<path d="M1303 3113 c9 -2 23 -2 30 0 6 3 -1 5 -18 5 -16 0 -22 -2 -12 -5z"/>
<path d="M1443 3113 c9 -2 25 -2 35 0 9 3 1 5 -18 5 -19 0 -27 -2 -17 -5z"/>
<path d="M1518 3113 c12 -2 30 -2 40 0 9 3 -1 5 -23 4 -22 0 -30 -2 -17 -4z"/>
<path d="M1300 3090 c0 -5 5 -10 11 -10 5 0 7 5 4 10 -3 6 -8 10 -11 10 -2 0
-4 -4 -4 -10z"/>
<path d="M1188 3063 c7 -3 16 -2 19 1 4 3 -2 6 -13 5 -11 0 -14 -3 -6 -6z"/>
<path d="M1258 3063 c18 -2 45 -2 60 0 15 2 0 4 -33 4 -33 0 -45 -2 -27 -4z"/>
<path d="M1368 3063 c6 -2 18 -2 25 0 6 3 1 5 -13 5 -14 0 -19 -2 -12 -5z"/>
<path d="M1453 3063 c15 -2 37 -2 50 0 12 2 0 4 -28 4 -27 0 -38 -2 -22 -4z"/>
<path d="M1598 3063 c7 -3 16 -2 19 1 4 3 -2 6 -13 5 -11 0 -14 -3 -6 -6z"/>
<path d="M1243 3033 c9 -2 25 -2 35 0 9 3 1 5 -18 5 -19 0 -27 -2 -17 -5z"/>
<path d="M1318 3033 c6 -2 18 -2 25 0 6 3 1 5 -13 5 -14 0 -19 -2 -12 -5z"/>
<path d="M1468 3033 c23 -2 61 -2 85 0 23 2 4 4 -43 4 -47 0 -66 -2 -42 -4z"/>
<path d="M1337 2999 c7 -7 15 -10 18 -7 3 3 -2 9 -12 12 -14 6 -15 5 -6 -5z"/>
<path d="M1370 3000 c0 -5 7 -10 15 -10 8 0 15 5 15 10 0 6 -7 10 -15 10 -8 0
-15 -4 -15 -10z"/>
<path d="M1410 3001 c0 -4 13 -8 29 -7 16 1 27 4 24 9 -6 10 -53 9 -53 -2z"/>
<path d="M1610 3000 c0 -5 4 -10 9 -10 6 0 13 5 16 10 3 6 -1 10 -9 10 -9 0
-16 -4 -16 -10z"/>
<path d="M1370 2960 c19 -13 30 -13 30 0 0 6 -10 10 -22 10 -19 0 -20 -2 -8
-10z"/>
<path d="M1198 2953 c7 -3 16 -2 19 1 4 3 -2 6 -13 5 -11 0 -14 -3 -6 -6z"/>
<path d="M1185 2919 c-4 -6 -5 -12 -2 -15 2 -3 7 2 10 11 7 17 1 20 -8 4z"/>
<path d="M1308 2923 c6 -2 18 -2 25 0 6 3 1 5 -13 5 -14 0 -19 -2 -12 -5z"/>
<path d="M1383 2915 c0 -8 4 -15 9 -15 4 0 8 7 8 15 0 8 -4 15 -8 15 -5 0 -9
-7 -9 -15z"/>
<path d="M1410 2915 c0 -8 5 -15 11 -15 5 0 8 4 4 9 -3 5 3 12 12 14 14 4 13
5 -4 6 -14 1 -23 -5 -23 -14z"/>
<path d="M1410 2860 c0 -11 4 -20 9 -20 5 0 7 9 4 20 -3 11 -7 20 -9 20 -2 0
-4 -9 -4 -20z"/>
<path d="M1550 2932 c0 -6 9 -8 20 -5 14 4 20 0 20 -11 0 -9 -8 -16 -17 -17
-14 0 -12 -3 5 -10 31 -12 17 -32 -17 -24 -19 5 -23 4 -15 -5 7 -6 22 -10 35
-8 21 3 24 9 24 43 0 36 -3 40 -27 43 -16 2 -28 -1 -28 -6z"/>
<path d="M1115 3450 c-3 -5 -1 -10 4 -10 15 0 14 -57 -1 -63 -7 -3 3 -5 22 -5
19 0 29 2 23 5 -8 2 -13 22 -13 44 0 27 -4 39 -14 39 -8 0 -18 -4 -21 -10z"/>
<path d="M73 3133 c9 -2 23 -2 30 0 6 3 -1 5 -18 5 -16 0 -22 -2 -12 -5z"/>
<path d="M418 3133 c7 -3 16 -2 19 1 4 3 -2 6 -13 5 -11 0 -14 -3 -6 -6z"/>
<path d="M478 3133 c6 -2 18 -2 25 0 6 3 1 5 -13 5 -14 0 -19 -2 -12 -5z"/>
<path d="M953 3133 c9 -2 23 -2 30 0 6 3 -1 5 -18 5 -16 0 -22 -2 -12 -5z"/>
<path d="M2058 3133 c7 -3 16 -2 19 1 4 3 -2 6 -13 5 -11 0 -14 -3 -6 -6z"/>
<path d="M2708 3133 c6 -2 18 -2 25 0 6 3 1 5 -13 5 -14 0 -19 -2 -12 -5z"/>
<path d="M133 3113 c20 -2 54 -2 75 0 20 2 3 4 -38 4 -41 0 -58 -2 -37 -4z"/>
<path d="M308 3113 c7 -3 16 -2 19 1 4 3 -2 6 -13 5 -11 0 -14 -3 -6 -6z"/>
<path d="M353 3113 c9 -2 25 -2 35 0 9 3 1 5 -18 5 -19 0 -27 -2 -17 -5z"/>
<path d="M453 3113 c9 -2 25 -2 35 0 9 3 1 5 -18 5 -19 0 -27 -2 -17 -5z"/>
<path d="M523 3113 c9 -2 25 -2 35 0 9 3 1 5 -18 5 -19 0 -27 -2 -17 -5z"/>
<path d="M598 3113 c6 -2 18 -2 25 0 6 3 1 5 -13 5 -14 0 -19 -2 -12 -5z"/>
<path d="M698 3113 c6 -2 18 -2 25 0 6 3 1 5 -13 5 -14 0 -19 -2 -12 -5z"/>
<path d="M758 3113 c7 -3 16 -2 19 1 4 3 -2 6 -13 5 -11 0 -14 -3 -6 -6z"/>
<path d="M818 3113 c7 -3 16 -2 19 1 4 3 -2 6 -13 5 -11 0 -14 -3 -6 -6z"/>
<path d="M868 3113 c6 -2 18 -2 25 0 6 3 1 5 -13 5 -14 0 -19 -2 -12 -5z"/>
<path d="M918 3113 c7 -3 16 -2 19 1 4 3 -2 6 -13 5 -11 0 -14 -3 -6 -6z"/>
<path d="M958 3113 c6 -2 18 -2 25 0 6 3 1 5 -13 5 -14 0 -19 -2 -12 -5z"/>
<path d="M1018 3113 c12 -2 30 -2 40 0 9 3 -1 5 -23 4 -22 0 -30 -2 -17 -4z"/>
<path d="M1788 3113 c7 -3 16 -2 19 1 4 3 -2 6 -13 5 -11 0 -14 -3 -6 -6z"/>
<path d="M1828 3113 c6 -2 18 -2 25 0 6 3 1 5 -13 5 -14 0 -19 -2 -12 -5z"/>
<path d="M1923 3113 c9 -2 23 -2 30 0 6 3 -1 5 -18 5 -16 0 -22 -2 -12 -5z"/>
<path d="M2028 3113 c7 -3 16 -2 19 1 4 3 -2 6 -13 5 -11 0 -14 -3 -6 -6z"/>
<path d="M2738 3113 c7 -3 16 -2 19 1 4 3 -2 6 -13 5 -11 0 -14 -3 -6 -6z"/>
<path d="M70 3089 c0 -3 18 -6 40 -6 22 0 40 3 40 7 0 4 -18 7 -40 7 -22 0
-40 -4 -40 -8z"/>
<path d="M260 3090 c19 -13 30 -13 30 0 0 6 -10 10 -22 10 -19 0 -20 -2 -8
-10z"/>
<path d="M314 3088 c12 -7 21 -7 28 0 6 6 0 10 -18 10 -23 0 -24 -2 -10 -10z"/>
<path d="M440 3089 c0 -5 5 -7 10 -4 6 3 10 8 10 11 0 2 -4 4 -10 4 -5 0 -10
-5 -10 -11z"/>
<path d="M483 3089 c10 -6 23 -6 33 -1 12 7 8 9 -18 10 -26 1 -30 -1 -15 -9z"/>
<path d="M1805 3090 c3 -5 8 -10 11 -10 2 0 4 5 4 10 0 6 -5 10 -11 10 -5 0
-7 -4 -4 -10z"/>
<path d="M1900 3090 c0 -5 5 -10 11 -10 5 0 7 5 4 10 -3 6 -8 10 -11 10 -2 0
-4 -4 -4 -10z"/>
<path d="M2110 3085 c10 -12 9 -15 -5 -15 -14 0 -15 -3 -5 -15 10 -12 9 -15
-5 -15 -14 0 -15 -3 -5 -15 10 -13 9 -15 -11 -15 -21 -1 -22 -2 -6 -11 21 -13
22 -29 1 -29 -14 0 -14 -3 -4 -15 22 -27 38 -17 38 25 0 22 4 45 7 50 4 6 10
24 15 40 8 26 6 30 -12 30 -17 0 -18 -2 -8 -15z"/>
<path d="M668 3083 c7 -3 16 -2 19 1 4 3 -2 6 -13 5 -11 0 -14 -3 -6 -6z"/>
<path d="M93 3063 c9 -2 23 -2 30 0 6 3 -1 5 -18 5 -16 0 -22 -2 -12 -5z"/>
<path d="M168 3063 c7 -3 16 -2 19 1 4 3 -2 6 -13 5 -11 0 -14 -3 -6 -6z"/>
<path d="M208 3063 c7 -3 16 -2 19 1 4 3 -2 6 -13 5 -11 0 -14 -3 -6 -6z"/>
<path d="M268 3063 c7 -3 16 -2 19 1 4 3 -2 6 -13 5 -11 0 -14 -3 -6 -6z"/>
<path d="M330 3061 c0 -4 11 -6 25 -3 14 2 25 6 25 8 0 2 -11 4 -25 4 -14 0
-25 -4 -25 -9z"/>
<path d="M458 3063 c6 -2 18 -2 25 0 6 3 1 5 -13 5 -14 0 -19 -2 -12 -5z"/>
<path d="M558 3063 c17 -2 47 -2 65 0 17 2 3 4 -33 4 -36 0 -50 -2 -32 -4z"/>
<path d="M708 3063 c12 -2 32 -2 45 0 12 2 2 4 -23 4 -25 0 -35 -2 -22 -4z"/>
<path d="M803 3063 c9 -2 25 -2 35 0 9 3 1 5 -18 5 -19 0 -27 -2 -17 -5z"/>
<path d="M866 3061 c-4 -5 3 -7 14 -4 23 6 26 13 6 13 -8 0 -17 -4 -20 -9z"/>
<path d="M983 3063 c9 -2 25 -2 35 0 9 3 1 5 -18 5 -19 0 -27 -2 -17 -5z"/>
<path d="M1793 3063 c9 -2 25 -2 35 0 9 3 1 5 -18 5 -19 0 -27 -2 -17 -5z"/>
<path d="M1878 3063 c12 -2 32 -2 45 0 12 2 2 4 -23 4 -25 0 -35 -2 -22 -4z"/>
<path d="M1983 3063 c15 -2 39 -2 55 0 15 2 2 4 -28 4 -30 0 -43 -2 -27 -4z"/>
<path d="M2690 3066 c0 -8 60 -12 72 -4 8 4 -4 8 -29 8 -24 0 -43 -2 -43 -4z"/>
<path d="M98 3033 c7 -3 16 -2 19 1 4 3 -2 6 -13 5 -11 0 -14 -3 -6 -6z"/>
<path d="M143 3033 c9 -2 25 -2 35 0 9 3 1 5 -18 5 -19 0 -27 -2 -17 -5z"/>
<path d="M303 3033 c15 -2 37 -2 50 0 12 2 0 4 -28 4 -27 0 -38 -2 -22 -4z"/>
<path d="M403 3033 c9 -2 23 -2 30 0 6 3 -1 5 -18 5 -16 0 -22 -2 -12 -5z"/>
<path d="M503 3033 c9 -2 23 -2 30 0 6 3 -1 5 -18 5 -16 0 -22 -2 -12 -5z"/>
<path d="M578 3033 c12 -2 30 -2 40 0 9 3 -1 5 -23 4 -22 0 -30 -2 -17 -4z"/>
<path d="M658 3033 c7 -3 16 -2 19 1 4 3 -2 6 -13 5 -11 0 -14 -3 -6 -6z"/>
<path d="M708 3033 c7 -3 16 -2 19 1 4 3 -2 6 -13 5 -11 0 -14 -3 -6 -6z"/>
<path d="M768 3033 c7 -3 16 -2 19 1 4 3 -2 6 -13 5 -11 0 -14 -3 -6 -6z"/>
<path d="M923 3033 c9 -2 25 -2 35 0 9 3 1 5 -18 5 -19 0 -27 -2 -17 -5z"/>
<path d="M988 3033 c7 -3 16 -2 19 1 4 3 -2 6 -13 5 -11 0 -14 -3 -6 -6z"/>
<path d="M1025 3030 c-3 -6 1 -7 9 -4 18 7 21 14 7 14 -6 0 -13 -4 -16 -10z"/>
<path d="M1833 3033 c9 -2 23 -2 30 0 6 3 -1 5 -18 5 -16 0 -22 -2 -12 -5z"/>
<path d="M1888 3033 c7 -3 16 -2 19 1 4 3 -2 6 -13 5 -11 0 -14 -3 -6 -6z"/>
<path d="M1998 3033 c7 -3 16 -2 19 1 4 3 -2 6 -13 5 -11 0 -14 -3 -6 -6z"/>
<path d="M2048 3033 c7 -3 16 -2 19 1 4 3 -2 6 -13 5 -11 0 -14 -3 -6 -6z"/>
<path d="M2663 3033 c9 -2 23 -2 30 0 6 3 -1 5 -18 5 -16 0 -22 -2 -12 -5z"/>
<path d="M110 2998 c0 -4 22 -7 50 -6 28 1 44 6 37 10 -15 10 -87 7 -87 -4z"/>
<path d="M220 2998 c0 -4 4 -8 9 -8 6 0 12 4 15 8 3 5 -1 9 -9 9 -8 0 -15 -4
-15 -9z"/>
<path d="M305 3000 c-6 -10 59 -10 75 -1 10 7 1 9 -29 8 -23 -1 -44 -4 -46 -7z"/>
<path d="M404 2998 c-3 -4 4 -8 15 -8 11 0 22 4 26 9 3 6 -4 9 -16 8 -11 -1
-23 -5 -25 -9z"/>
<path d="M460 2999 c0 -12 101 -11 119 0 8 6 -11 9 -53 9 -36 0 -66 -4 -66 -9z"/>
<path d="M606 3002 c-3 -5 1 -9 9 -9 8 0 15 4 15 9 0 4 -4 8 -9 8 -6 0 -12 -4
-15 -8z"/>
<path d="M740 3000 c0 -5 5 -10 11 -10 5 0 7 5 4 10 -3 6 -8 10 -11 10 -2 0
-4 -4 -4 -10z"/>
<path d="M770 2999 c0 -5 5 -7 10 -4 6 3 10 8 10 11 0 2 -4 4 -10 4 -5 0 -10
-5 -10 -11z"/>
<path d="M1790 2999 c0 -10 50 -8 56 2 3 5 -8 8 -25 7 -17 -1 -31 -5 -31 -9z"/>
<path d="M1920 3000 l-25 -8 28 -1 c15 -1 27 4 27 9 0 6 -1 10 -2 9 -2 -1 -14
-5 -28 -9z"/>
<path d="M2027 2999 c7 -7 15 -10 18 -7 3 3 -2 9 -12 12 -14 6 -15 5 -6 -5z"/>
<path d="M70 2960 c0 -5 7 -7 15 -4 8 4 15 8 15 10 0 2 -7 4 -15 4 -8 0 -15
-4 -15 -10z"/>
<path d="M123 2960 c-32 -13 -29 -17 7 -12 17 2 30 8 30 13 0 11 -8 11 -37 -1z"/>
<path d="M283 2963 c9 -2 23 -2 30 0 6 3 -1 5 -18 5 -16 0 -22 -2 -12 -5z"/>
<path d="M340 2960 c-8 -5 -10 -10 -5 -10 6 0 17 5 25 10 8 5 11 10 5 10 -5 0
-17 -5 -25 -10z"/>
<path d="M456 2962 c-2 -4 6 -8 19 -8 13 0 21 4 19 8 -3 4 -11 8 -19 8 -8 0
-16 -4 -19 -8z"/>
<path d="M510 2959 c0 -5 5 -7 10 -4 6 3 10 8 10 11 0 2 -4 4 -10 4 -5 0 -10
-5 -10 -11z"/>
<path d="M680 2960 c0 -7 59 -4 67 4 3 2 -12 4 -31 4 -20 0 -36 -3 -36 -8z"/>
<path d="M765 2961 c-3 -6 4 -8 16 -6 30 6 37 15 11 15 -11 0 -23 -4 -27 -9z"/>
<path d="M950 2959 c0 -5 5 -7 10 -4 6 3 10 8 10 11 0 2 -4 4 -10 4 -5 0 -10
-5 -10 -11z"/>
<path d="M980 2959 c0 -5 5 -7 10 -4 6 3 10 8 10 11 0 2 -4 4 -10 4 -5 0 -10
-5 -10 -11z"/>
<path d="M1020 2960 c0 -5 7 -7 15 -4 8 4 15 8 15 10 0 2 -7 4 -15 4 -8 0 -15
-4 -15 -10z"/>
<path d="M1815 2960 c3 -5 11 -10 16 -10 6 0 7 5 4 10 -3 6 -11 10 -16 10 -6
0 -7 -4 -4 -10z"/>
<path d="M2015 2960 c3 -5 8 -10 11 -10 2 0 4 5 4 10 0 6 -5 10 -11 10 -5 0
-7 -4 -4 -10z"/>
<path d="M2632 2965 c3 -3 18 -8 34 -11 22 -3 25 -2 14 6 -15 10 -58 14 -48 5z"/>
<path d="M2715 2960 c27 -12 43 -12 25 0 -8 5 -22 9 -30 9 -10 0 -8 -3 5 -9z"/>
<path d="M68 2923 c7 -3 16 -2 19 1 4 3 -2 6 -13 5 -11 0 -14 -3 -6 -6z"/>
<path d="M128 2923 c6 -2 18 -2 25 0 6 3 1 5 -13 5 -14 0 -19 -2 -12 -5z"/>
<path d="M188 2923 c12 -2 20 -9 17 -14 -9 -14 9 -11 31 6 18 13 16 14 -26 13
-25 0 -35 -3 -22 -5z"/>
<path d="M266 2915 c-16 -12 -17 -15 -4 -15 9 0 18 7 22 15 7 18 6 18 -18 0z"/>
<path d="M308 2923 c6 -2 18 -2 25 0 6 3 1 5 -13 5 -14 0 -19 -2 -12 -5z"/>
<path d="M388 2923 c7 -3 16 -2 19 1 4 3 -2 6 -13 5 -11 0 -14 -3 -6 -6z"/>
<path d="M446 2915 c-4 -13 -2 -14 14 -5 23 13 26 20 6 20 -8 0 -16 -7 -20
-15z"/>
<path d="M638 2923 c6 -2 18 -2 25 0 6 3 1 5 -13 5 -14 0 -19 -2 -12 -5z"/>
<path d="M686 2914 c-5 -14 -4 -15 9 -4 17 14 19 20 6 20 -5 0 -12 -7 -15 -16z"/>
<path d="M720 2915 c-9 -10 -9 -15 -1 -15 6 0 11 4 11 9 0 5 12 12 28 14 l27
4 -26 2 c-15 0 -32 -6 -39 -14z"/>
<path d="M913 2915 c0 -8 4 -15 9 -15 4 0 8 7 8 15 0 8 -4 15 -8 15 -5 0 -9
-7 -9 -15z"/>
<path d="M950 2915 c-7 -8 -9 -15 -6 -15 4 0 14 7 22 15 9 8 11 15 6 15 -5 0
-15 -7 -22 -15z"/>
<path d="M1038 2923 c6 -2 18 -2 25 0 6 3 1 5 -13 5 -14 0 -19 -2 -12 -5z"/>
<path d="M1763 2923 c9 -2 23 -2 30 0 6 3 -1 5 -18 5 -16 0 -22 -2 -12 -5z"/>
<path d="M1843 2915 c0 -8 4 -15 9 -15 4 0 8 4 8 9 0 6 -4 12 -8 15 -5 3 -9
-1 -9 -9z"/>
<path d="M2077 2913 c3 -7 9 -13 13 -13 5 0 11 -13 15 -30 4 -16 13 -30 20
-30 14 0 12 18 -4 45 -6 10 -7 16 -10 34 0 6 -10 9 -20 8 -11 0 -17 -6 -14
-14z"/>
<path d="M2561 2927 c2 -1 13 -9 23 -17 11 -8 17 -10 13 -3 -5 8 3 13 25 16
25 3 21 4 -16 5 -27 1 -47 1 -45 -1z"/>
<path d="M2728 2923 c7 -3 16 -2 19 1 4 3 -2 6 -13 5 -11 0 -14 -3 -6 -6z"/>
<path d="M78 2903 c7 -3 16 -2 19 1 4 3 -2 6 -13 5 -11 0 -14 -3 -6 -6z"/>
<path d="M488 2903 c7 -3 16 -2 19 1 4 3 -2 6 -13 5 -11 0 -14 -3 -6 -6z"/>
<path d="M568 2903 c7 -3 16 -2 19 1 4 3 -2 6 -13 5 -11 0 -14 -3 -6 -6z"/>
<path d="M158 2873 c7 -3 16 -2 19 1 4 3 -2 6 -13 5 -11 0 -14 -3 -6 -6z"/>
<path d="M195 2870 c-3 -6 1 -7 9 -4 18 7 21 14 7 14 -6 0 -13 -4 -16 -10z"/>
<path d="M378 2858 c-10 -10 -14 -18 -9 -18 10 0 36 29 30 34 -2 1 -12 -6 -21
-16z"/>
<path d="M448 2873 c6 -2 18 -2 25 0 6 3 1 5 -13 5 -14 0 -19 -2 -12 -5z"/>
<path d="M634 2858 l-19 -23 23 19 c21 18 27 26 19 26 -2 0 -12 -10 -23 -22z"/>
<path d="M2654 2871 c7 -11 46 -35 46 -28 0 3 -12 12 -26 22 -15 9 -23 12 -20
6z"/>
<path d="M660 2855 c-7 -9 -8 -15 -2 -15 5 0 12 7 16 15 3 8 4 15 2 15 -2 0
-9 -7 -16 -15z"/>
<path d="M885 2859 c-4 -6 -5 -12 -2 -15 2 -3 7 2 10 11 7 17 1 20 -8 4z"/>
<path d="M2620 2861 c0 -9 30 -24 36 -18 2 1 -6 8 -16 15 -11 7 -20 8 -20 3z"/>
<path d="M1890 2850 c0 -5 5 -10 11 -10 5 0 7 5 4 10 -3 6 -8 10 -11 10 -2 0
-4 -4 -4 -10z"/>
<path d="M158 2843 c7 -3 16 -2 19 1 4 3 -2 6 -13 5 -11 0 -14 -3 -6 -6z"/>
<path d="M2130 2830 c-10 -26 -7 -60 6 -60 8 0 14 6 13 13 -1 15 -17 54 -19
47z"/>
<path d="M96 2811 c-3 -4 6 -6 19 -3 14 2 25 6 25 8 0 8 -39 4 -44 -5z"/>
<path d="M203 2813 c9 -2 23 -2 30 0 6 3 -1 5 -18 5 -16 0 -22 -2 -12 -5z"/>
<path d="M296 2805 c4 -10 -3 -16 -23 -20 -46 -11 -50 -13 -19 -14 16 -1 40 9
58 24 l30 25 -26 0 c-18 0 -24 -4 -20 -15z"/>
<path d="M438 2813 c12 -2 30 -2 40 0 9 3 -1 5 -23 4 -22 0 -30 -2 -17 -4z"/>
<path d="M570 2802 c0 -12 3 -12 15 -2 8 7 15 13 15 15 0 1 -7 2 -15 2 -8 0
-15 -7 -15 -15z"/>
<path d="M1948 2813 c6 -2 18 -2 25 0 6 3 1 5 -13 5 -14 0 -19 -2 -12 -5z"/>
<path d="M2063 2813 c9 -2 23 -2 30 0 6 3 -1 5 -18 5 -16 0 -22 -2 -12 -5z"/>
<path d="M2588 2813 c12 -2 32 -2 45 0 12 2 2 4 -23 4 -25 0 -35 -2 -22 -4z"/>
<path d="M2705 2803 c27 -15 28 -17 10 -24 -15 -6 -10 -8 19 -8 l39 -1 -37 25
c-20 14 -42 25 -49 25 -7 -1 1 -8 18 -17z"/>
<path d="M2730 2816 c0 -9 30 -14 35 -6 4 6 -3 10 -14 10 -12 0 -21 -2 -21 -4z"/>
<path d="M326 2785 c-19 -14 -18 -15 10 -14 16 0 23 3 16 6 -6 2 -10 9 -6 14
7 12 2 11 -20 -6z"/>
<path d="M590 2780 c-12 -8 -10 -10 8 -10 13 0 20 4 17 10 -7 12 -6 12 -25 0z"/>
<path d="M810 2780 l-35 -7 32 -2 c17 0 35 4 38 9 3 6 5 9 3 9 -2 -1 -19 -5
-38 -9z"/>
<path d="M865 2780 c-3 -5 -1 -10 4 -10 6 0 11 5 11 10 0 6 -2 10 -4 10 -3 0
-8 -4 -11 -10z"/>
<path d="M1925 2780 c-3 -5 1 -10 10 -10 9 0 13 5 10 10 -3 6 -8 10 -10 10 -2
0 -7 -4 -10 -10z"/>
<path d="M1967 2779 c7 -7 15 -10 18 -7 3 3 -2 9 -12 12 -14 6 -15 5 -6 -5z"/>
<path d="M113 2773 c9 -2 25 -2 35 0 9 3 1 5 -18 5 -19 0 -27 -2 -17 -5z"/>
<path d="M538 2773 c6 -2 18 -2 25 0 6 3 1 5 -13 5 -14 0 -19 -2 -12 -5z"/>
<path d="M898 2773 c7 -3 16 -2 19 1 4 3 -2 6 -13 5 -11 0 -14 -3 -6 -6z"/>
<path d="M938 2773 c6 -2 18 -2 25 0 6 3 1 5 -13 5 -14 0 -19 -2 -12 -5z"/>
<path d="M2618 2773 c7 -3 16 -2 19 1 4 3 -2 6 -13 5 -11 0 -14 -3 -6 -6z"/>
<path d="M2668 2773 c7 -3 16 -2 19 1 4 3 -2 6 -13 5 -11 0 -14 -3 -6 -6z"/>
<path d="M230 2749 c0 -5 -5 -7 -12 -3 -6 4 -8 3 -5 -3 11 -17 -15 -31 -63
-36 l-45 -4 45 -1 c36 -1 52 4 80 28 26 22 30 30 18 30 -10 0 -18 -5 -18 -11z"/>
<path d="M250 2730 l-34 -30 59 2 c44 1 50 2 22 5 -32 4 -36 7 -26 19 6 8 18
14 25 14 8 0 14 5 14 10 0 18 -24 10 -60 -20z"/>
<path d="M506 2735 c-6 -23 -11 -24 -89 -27 -45 -2 22 -5 148 -6 l230 -2 17
30 16 29 -30 -4 c-37 -5 -50 -15 -19 -15 14 0 21 -5 18 -12 -4 -15 -287 -23
-287 -9 0 5 9 15 21 23 21 13 21 14 1 15 -14 1 -22 -6 -26 -22z"/>
<path d="M566 2752 c-5 -9 63 -6 72 3 3 3 -11 5 -31 5 -20 0 -38 -4 -41 -8z"/>
<path d="M715 2750 c-19 -8 -19 -9 3 -9 12 -1 22 4 22 9 0 6 -1 10 -2 9 -2 0
-12 -4 -23 -9z"/>
<path d="M846 2751 c-4 -5 1 -8 9 -7 21 3 31 16 12 16 -9 0 -18 -4 -21 -9z"/>
<path d="M948 2753 c6 -2 18 -2 25 0 6 3 1 5 -13 5 -14 0 -19 -2 -12 -5z"/>
<path d="M1925 2750 c4 -6 10 -8 15 -5 11 7 42 -24 35 -36 -4 -5 1 -9 10 -9
14 0 13 4 -5 30 -19 27 -71 45 -55 20z"/>
<path d="M2048 2753 c7 -3 16 -2 19 1 4 3 -2 6 -13 5 -11 0 -14 -3 -6 -6z"/>
<path d="M2118 2748 c23 -23 13 -37 -30 -41 -39 -3 -37 -4 13 -5 l56 -2 -5 30
c-3 22 -10 30 -25 30 -16 0 -18 -3 -9 -12z"/>
<path d="M2524 2748 c3 -7 9 -21 12 -30 4 -10 16 -18 27 -18 19 0 19 2 -8 30
-31 32 -40 37 -31 18z"/>
<path d="M2562 2744 c10 -10 20 -15 24 -12 3 4 -5 12 -18 18 -22 12 -22 12 -6
-6z"/>
<path d="M820 2715 c-7 -9 -8 -15 -2 -15 5 0 12 7 16 15 3 8 4 15 2 15 -2 0
-9 -7 -16 -15z"/>
<path d="M2006 2716 c3 -9 13 -16 22 -16 8 0 13 1 11 3 -2 1 -12 9 -22 16 -15
12 -17 12 -11 -3z"/>
<path d="M1070 2710 l-25 -8 28 -1 c15 -1 27 4 27 9 0 6 -1 10 -2 9 -2 -1 -14
-5 -28 -9z"/>
<path d="M1710 2710 c0 -6 7 -10 15 -10 8 0 15 2 15 4 0 2 -7 6 -15 10 -8 3
-15 1 -15 -4z"/>
<path d="M2607 2709 c7 -7 15 -10 18 -7 3 3 -2 9 -12 12 -14 6 -15 5 -6 -5z"/>
<path d="M903 2703 c26 -2 68 -2 95 0 26 2 4 3 -48 3 -52 0 -74 -1 -47 -3z"/>
<path d="M1178 2703 c6 -2 18 -2 25 0 6 3 1 5 -13 5 -14 0 -19 -2 -12 -5z"/>
<path d="M1248 2703 c6 -2 18 -2 25 0 6 3 1 5 -13 5 -14 0 -19 -2 -12 -5z"/>
<path d="M1308 2703 c6 -2 18 -2 25 0 6 3 1 5 -13 5 -14 0 -19 -2 -12 -5z"/>
<path d="M1588 2703 c23 -2 59 -2 80 0 20 2 1 4 -43 4 -44 0 -61 -2 -37 -4z"/>
<path d="M1778 2703 c18 -2 45 -2 60 0 15 2 0 4 -33 4 -33 0 -45 -2 -27 -4z"/>
<path d="M1908 2703 c12 -2 30 -2 40 0 9 3 -1 5 -23 4 -22 0 -30 -2 -17 -4z"/>
<path d="M2698 2703 c12 -2 30 -2 40 0 9 3 -1 5 -23 4 -22 0 -30 -2 -17 -4z"/>
<path d="M150 2684 c-9 -3 -21 -14 -28 -25 -12 -19 -11 -19 17 2 25 19 40 33
29 28 -2 -1 -10 -3 -18 -5z"/>
<path d="M450 2680 c-8 -5 -11 -12 -7 -16 4 -4 13 -2 19 4 15 15 7 24 -12 12z"/>
<path d="M760 2680 c-8 -6 -12 -10 -7 -10 19 0 -28 -49 -51 -53 -26 -4 -26 -4
3 -5 24 -1 35 5 53 34 25 38 25 49 2 34z"/>
<path d="M777 2650 l-26 -40 47 2 c37 1 40 2 15 5 -37 5 -39 9 -17 41 9 13 14
25 12 28 -3 2 -16 -14 -31 -36z"/>
<path d="M1075 2680 c-3 -5 -1 -10 4 -10 6 0 11 5 11 10 0 6 -2 10 -4 10 -3 0
-8 -4 -11 -10z"/>
<path d="M1107 2683 c-4 -3 -7 -11 -7 -17 0 -6 5 -5 12 2 6 6 9 14 7 17 -3 3
-9 2 -12 -2z"/>
<path d="M1387 2656 c5 -30 3 -35 -18 -39 -22 -4 -22 -4 4 -6 24 -1 27 2 27
33 0 19 -4 37 -9 41 -6 3 -8 -9 -4 -29z"/>
<path d="M1720 2674 c0 -8 5 -12 10 -9 6 4 8 11 5 16 -9 14 -15 11 -15 -7z"/>
<path d="M2000 2681 c0 -6 4 -13 10 -16 6 -3 7 1 4 9 -7 18 -14 21 -14 7z"/>
<path d="M2030 2681 c0 -5 9 -7 20 -4 11 3 20 7 20 9 0 2 -9 4 -20 4 -11 0
-20 -4 -20 -9z"/>
<path d="M2120 2682 c0 -5 3 -12 7 -16 4 -3 7 -15 8 -26 1 -16 -5 -20 -28 -20
-16 0 -36 8 -44 18 -13 15 -13 15 -3 -5 8 -17 19 -23 45 -23 19 0 35 -4 35
-10 0 -5 -4 -10 -9 -10 -5 0 -14 -12 -19 -27 l-9 -28 -13 28 c-9 17 -21 27
-34 26 -20 0 -20 -1 2 -9 24 -10 29 -34 10 -47 -22 -14 -82 -33 -108 -34 -25
-1 -25 -1 3 -11 20 -7 35 -7 50 0 12 6 38 18 57 26 74 31 102 82 85 154 -5 20
-35 32 -35 14z"/>
<path d="M2567 2650 c15 -38 18 -40 57 -38 35 1 36 2 10 5 -21 3 -35 12 -42
29 -9 18 -9 24 0 24 17 0 0 13 -21 17 -18 2 -19 1 -4 -37z"/>
<path d="M2640 2685 c0 -10 29 -24 34 -17 3 6 -3 12 -14 15 -11 3 -20 4 -20 2z"/>
<path d="M188 2673 c7 -3 16 -2 19 1 4 3 -2 6 -13 5 -11 0 -14 -3 -6 -6z"/>
<path d="M228 2673 c7 -3 16 -2 19 1 4 3 -2 6 -13 5 -11 0 -14 -3 -6 -6z"/>
<path d="M338 2673 c12 -2 32 -2 45 0 12 2 2 4 -23 4 -25 0 -35 -2 -22 -4z"/>
<path d="M538 2673 c12 -2 30 -2 40 0 9 3 -1 5 -23 4 -22 0 -30 -2 -17 -4z"/>
<path d="M638 2673 c7 -3 16 -2 19 1 4 3 -2 6 -13 5 -11 0 -14 -3 -6 -6z"/>
<path d="M918 2673 c7 -3 16 -2 19 1 4 3 -2 6 -13 5 -11 0 -14 -3 -6 -6z"/>
<path d="M963 2673 c9 -2 25 -2 35 0 9 3 1 5 -18 5 -19 0 -27 -2 -17 -5z"/>
<path d="M1138 2673 c7 -3 16 -2 19 1 4 3 -2 6 -13 5 -11 0 -14 -3 -6 -6z"/>
<path d="M1208 2673 c7 -3 16 -2 19 1 4 3 -2 6 -13 5 -11 0 -14 -3 -6 -6z"/>
<path d="M1333 2673 c9 -2 23 -2 30 0 6 3 -1 5 -18 5 -16 0 -22 -2 -12 -5z"/>
<path d="M1410 2655 c0 -14 2 -25 4 -25 2 0 6 11 8 25 3 14 1 25 -3 25 -5 0
-9 -11 -9 -25z"/>
<path d="M1538 2673 c7 -3 16 -2 19 1 4 3 -2 6 -13 5 -11 0 -14 -3 -6 -6z"/>
<path d="M1578 2673 c7 -3 16 -2 19 1 4 3 -2 6 -13 5 -11 0 -14 -3 -6 -6z"/>
<path d="M1623 2673 c9 -2 25 -2 35 0 9 3 1 5 -18 5 -19 0 -27 -2 -17 -5z"/>
<path d="M1793 2673 c15 -2 39 -2 55 0 15 2 2 4 -28 4 -30 0 -43 -2 -27 -4z"/>
<path d="M1908 2673 c6 -2 18 -2 25 0 6 3 1 5 -13 5 -14 0 -19 -2 -12 -5z"/>
<path d="M1958 2673 c6 -2 18 -2 25 0 6 3 1 5 -13 5 -14 0 -19 -2 -12 -5z"/>
<path d="M2620 2673 c0 -4 13 -17 29 -28 16 -10 27 -23 25 -27 -3 -4 2 -8 10
-8 23 0 21 3 -24 39 -22 17 -40 28 -40 24z"/>
<path d="M2718 2673 c7 -3 16 -2 19 1 4 3 -2 6 -13 5 -11 0 -14 -3 -6 -6z"/>
<path d="M1704 2648 c2 -22 -1 -28 -23 -31 -18 -3 -15 -4 13 -6 30 -1 36 2 28
12 -5 6 -12 21 -16 32 -3 13 -4 10 -2 -7z"/>
<path d="M450 2635 c-13 -14 -19 -25 -14 -25 8 1 50 50 41 50 -2 0 -14 -11
-27 -25z"/>
<path d="M123 2631 c-22 -18 -22 -18 25 -18 26 0 35 2 20 4 -18 3 -25 9 -21
19 7 18 3 17 -24 -5z"/>
<path d="M413 2636 c-4 -8 -17 -16 -28 -19 -19 -4 -19 -5 1 -6 11 0 29 8 39
19 10 11 13 20 7 20 -6 0 -15 -6 -19 -14z"/>
<path d="M2710 2631 c14 -11 31 -21 39 -21 18 0 14 4 -29 24 l-35 17 25 -20z"/>
<path d="M70 2624 c-17 -9 -20 -14 -9 -14 9 0 22 7 29 15 15 18 13 18 -20 -1z"/>
<path d="M2034 2632 c5 -8 -21 -12 -86 -15 l-93 -3 98 -2 c90 -2 116 5 85 24
-7 4 -8 3 -4 -4z"/>
<path d="M237 2613 c24 -2 62 -2 86 0 23 2 4 4 -43 4 -47 0 -66 -2 -43 -4z"/>
<path d="M523 2613 c15 -2 39 -2 55 0 15 2 2 4 -28 4 -30 0 -43 -2 -27 -4z"/>
<path d="M623 2613 c9 -2 25 -2 35 0 9 3 1 5 -18 5 -19 0 -27 -2 -17 -5z"/>
<path d="M933 2613 c26 -2 68 -2 95 0 26 2 4 3 -48 3 -52 0 -74 -1 -47 -3z"/>
<path d="M1093 2613 c9 -2 23 -2 30 0 6 3 -1 5 -18 5 -16 0 -22 -2 -12 -5z"/>
<path d="M1168 2613 c17 -2 47 -2 65 0 17 2 3 4 -33 4 -36 0 -50 -2 -32 -4z"/>
<path d="M1303 2613 c9 -2 23 -2 30 0 6 3 -1 5 -18 5 -16 0 -22 -2 -12 -5z"/>
<path d="M1418 2613 c6 -2 18 -2 25 0 6 3 1 5 -13 5 -14 0 -19 -2 -12 -5z"/>
<path d="M1498 2613 c7 -3 16 -2 19 1 4 3 -2 6 -13 5 -11 0 -14 -3 -6 -6z"/>
<path d="M1538 2613 c7 -3 16 -2 19 1 4 3 -2 6 -13 5 -11 0 -14 -3 -6 -6z"/>
<path d="M1588 2613 c12 -2 32 -2 45 0 12 2 2 4 -23 4 -25 0 -35 -2 -22 -4z"/>
<path d="M1753 2613 c9 -2 25 -2 35 0 9 3 1 5 -18 5 -19 0 -27 -2 -17 -5z"/>
<path d="M1818 2613 c6 -2 18 -2 25 0 6 3 1 5 -13 5 -14 0 -19 -2 -12 -5z"/>
<path d="M2597 2593 c-5 -4 18 -102 25 -109 2 -2 17 1 34 5 l29 9 -27 1 c-19
1 -29 7 -30 19 -4 45 -3 57 5 63 5 3 0 9 -12 12 -11 2 -22 3 -24 0z"/>
<path d="M207 2583 c18 -2 50 -2 70 0 21 2 7 4 -32 4 -38 0 -55 -2 -38 -4z"/>
<path d="M340 2580 c12 -8 8 -17 -25 -52 -34 -37 -33 -36 13 7 28 27 52 51 52
52 0 2 -12 3 -27 3 -22 0 -25 -2 -13 -10z"/>
<path d="M350 2534 c-30 -31 -45 -51 -34 -46 12 6 24 8 28 4 4 -3 4 1 1 9 -4
10 8 28 35 52 22 21 37 37 32 37 -4 0 -32 -25 -62 -56z"/>
<path d="M488 2583 c7 -3 16 -2 19 1 4 3 -2 6 -13 5 -11 0 -14 -3 -6 -6z"/>
<path d="M553 2583 c9 -2 25 -2 35 0 9 3 1 5 -18 5 -19 0 -27 -2 -17 -5z"/>
<path d="M618 2583 c6 -2 18 -2 25 0 6 3 1 5 -13 5 -14 0 -19 -2 -12 -5z"/>
<path d="M688 2582 c9 -6 5 -19 -19 -51 -17 -24 -29 -45 -26 -47 2 -2 20 21
41 51 35 53 35 55 14 55 -16 0 -19 -3 -10 -8z"/>
<path d="M713 2548 c-58 -85 -57 -92 2 -15 20 27 34 51 32 54 -3 2 -18 -15
-34 -39z"/>
<path d="M793 2583 c9 -2 25 -2 35 0 9 3 1 5 -18 5 -19 0 -27 -2 -17 -5z"/>
<path d="M997 2583 c44 -3 51 -7 47 -21 -5 -14 -4 -15 5 -2 19 26 12 30 -46
28 l-58 -2 52 -3z"/>
<path d="M1075 2579 c-4 -6 -4 -13 -1 -16 3 -4 6 -1 6 5 0 6 8 13 18 15 15 4
15 5 0 6 -9 0 -20 -4 -23 -10z"/>
<path d="M1133 2583 c9 -2 23 -2 30 0 6 3 -1 5 -18 5 -16 0 -22 -2 -12 -5z"/>
<path d="M1508 2583 c6 -2 18 -2 25 0 6 3 1 5 -13 5 -14 0 -19 -2 -12 -5z"/>
<path d="M1568 2583 c6 -2 18 -2 25 0 6 3 1 5 -13 5 -14 0 -19 -2 -12 -5z"/>
<path d="M1720 2575 c11 -13 8 -19 -11 -17 -3 0 -24 -14 -47 -33 -27 -21 -39
-36 -31 -40 8 -6 8 -9 -1 -15 -9 -5 -8 -15 3 -41 23 -55 49 -72 102 -67 39 5
45 3 45 -13 0 -11 6 -19 13 -19 11 0 11 9 3 44 l-10 44 -27 -20 c-22 -16 -33
-18 -56 -11 -39 13 -60 53 -48 90 24 65 111 69 130 5 l9 -32 87 0 c49 0 91 5
94 10 4 6 -26 10 -81 10 -62 0 -85 3 -78 11 8 7 1 20 -22 44 -40 39 -42 52
-11 58 18 4 17 5 -7 6 -26 1 -28 -1 -22 -26 6 -27 6 -27 -9 -9 -8 11 -15 23
-15 28 0 4 -5 8 -11 8 -8 0 -8 -5 1 -15z"/>
<path d="M1823 2583 c9 -2 25 -2 35 0 9 3 1 5 -18 5 -19 0 -27 -2 -17 -5z"/>
<path d="M1948 2583 c12 -2 32 -2 45 0 12 2 2 4 -23 4 -25 0 -35 -2 -22 -4z"/>
<path d="M2095 2580 c3 -5 8 -10 11 -10 2 0 4 5 4 10 0 6 -5 10 -11 10 -5 0
-7 -4 -4 -10z"/>
<path d="M2708 2583 c6 -2 18 -2 25 0 6 3 1 5 -13 5 -14 0 -19 -2 -12 -5z"/>
<path d="M1389 2543 c0 -5 -2 -20 -4 -35 -2 -16 1 -28 6 -28 5 0 9 16 9 35 0
19 -2 35 -5 35 -3 0 -5 -3 -6 -7z"/>
<path d="M1410 2504 c0 -14 4 -23 9 -20 5 3 7 15 4 26 -7 28 -13 25 -13 -6z"/>
<path d="M1047 2506 c-10 -25 -5 -28 24 -17 16 7 18 10 7 10 -9 1 -18 6 -20
13 -3 7 -7 5 -11 -6z"/>
<path d="M1010 2495 c-8 -9 -8 -15 -2 -15 12 0 26 19 19 26 -2 2 -10 -2 -17
-11z"/>
<path d="M1703 2503 c-24 -9 -13 -23 12 -17 14 3 25 2 25 -3 0 -5 -11 -20 -25
-33 -33 -31 -32 -40 8 -39 25 1 27 3 9 6 l-24 5 23 24 c18 19 21 29 13 41 -12
19 -23 24 -41 16z"/>
<path d="M145 2490 c-3 -5 -1 -10 4 -10 6 0 11 5 11 10 0 6 -2 10 -4 10 -3 0
-8 -4 -11 -10z"/>
<path d="M235 2490 c-3 -6 1 -7 9 -4 18 7 21 14 7 14 -6 0 -13 -4 -16 -10z"/>
<path d="M890 2496 c0 -2 11 -6 25 -8 13 -3 22 -1 19 3 -5 9 -44 13 -44 5z"/>
<path d="M958 2493 c6 -2 18 -2 25 0 6 3 1 5 -13 5 -14 0 -19 -2 -12 -5z"/>
<path d="M2708 2493 c7 -3 16 -2 19 1 4 3 -2 6 -13 5 -11 0 -14 -3 -6 -6z"/>
<path d="M53 2440 l-11 -30 25 20 c21 16 41 20 109 20 49 0 84 4 84 10 0 6
-39 10 -98 10 l-98 0 -11 -30z"/>
<path d="M275 2460 c-4 -7 121 -10 377 -10 211 0 382 -3 382 -7 -1 -4 -18 -60
-38 -125 -20 -64 -36 -119 -36 -122 0 -3 21 -5 48 -4 44 1 44 2 9 5 -42 5 -42
6 -11 82 8 18 11 37 8 42 -3 5 1 9 8 9 8 0 14 16 15 46 1 26 9 57 18 70 l15
23 -394 1 c-256 0 -397 -3 -401 -10z"/>
<path d="M1140 2460 c0 -5 5 -10 11 -10 5 0 7 5 4 10 -3 6 -8 10 -11 10 -2 0
-4 -4 -4 -10z"/>
<path d="M1176 2462 c-5 -8 90 -9 97 -2 3 3 -17 6 -44 7 -27 0 -51 -2 -53 -5z"/>
<path d="M1305 2460 c3 -5 12 -10 20 -10 8 0 17 5 20 10 4 6 -5 10 -20 10 -15
0 -24 -4 -20 -10z"/>
<path d="M1385 2420 c3 -70 15 -76 15 -7 0 32 -4 57 -9 57 -4 0 -7 -23 -6 -50z"/>
<path d="M1410 2453 c0 -10 4 -14 8 -8 4 6 11 13 16 18 5 4 2 7 -7 7 -10 0
-17 -8 -17 -17z"/>
<path d="M1450 2461 c0 -5 13 -9 30 -9 16 1 27 5 24 10 -7 11 -54 10 -54 -1z"/>
<path d="M2625 2460 c3 -5 24 -10 47 -10 25 0 49 -8 65 -20 31 -24 44 -18 20
8 -10 10 -14 22 -10 25 3 4 -24 7 -61 7 -42 0 -65 -4 -61 -10z"/>
<path d="M76 2415 c-33 -29 -28 -32 15 -10 17 9 50 15 78 14 26 -1 53 1 61 6
10 6 12 4 6 -10 -5 -15 -4 -16 9 -5 12 10 189 16 338 11 17 -1 17 -3 -3 -33
l-22 -33 29 33 29 34 137 -1 c75 0 159 0 186 -1 l49 0 -5 -32 c-3 -18 -9 -38
-14 -44 -5 -6 -6 -14 -3 -17 3 -3 -9 -10 -27 -16 -27 -7 -29 -9 -11 -10 17 -1
22 -6 18 -18 -3 -10 -8 -31 -12 -46 -4 -16 -16 -32 -28 -37 -21 -9 -21 -9 2
-9 29 -1 19 -21 -11 -21 -17 0 -19 -2 -8 -9 12 -8 13 -16 2 -48 -7 -21 -13
-45 -15 -53 -5 -33 -18 -60 -28 -60 -6 0 -6 -6 2 -15 11 -13 5 -15 -40 -15
-60 0 -64 -8 -7 -12 26 -1 37 -7 37 -18 0 -9 5 -21 12 -28 10 -10 0 -12 -44
-8 -32 2 -76 0 -100 -5 -35 -7 -48 -4 -70 12 -28 19 -28 19 -45 -1 l-18 -21
-7 23 c-6 21 -6 21 -7 -4 -1 -16 4 -28 10 -28 6 0 1 -13 -11 -30 -18 -25 -19
-32 -8 -51 11 -18 10 -23 -9 -36 -32 -21 -33 -107 -3 -123 12 -6 21 -22 21
-38 1 -21 3 -23 6 -6 2 12 15 26 29 32 13 7 24 17 24 24 0 7 6 3 14 -8 10 -14
24 -20 46 -18 17 1 34 5 37 8 6 5 32 -23 33 -35 0 -3 -12 -4 -27 -2 -16 3 -37
-2 -48 -11 -17 -13 -18 -18 -7 -36 8 -13 11 -33 7 -49 -8 -36 18 -60 45 -43
11 7 21 8 25 2 3 -5 20 -8 37 -8 18 1 34 -4 36 -10 6 -20 40 -13 47 9 6 17 9
18 22 7 18 -14 140 -21 148 -8 3 5 19 4 35 -1 58 -21 98 25 80 91 -12 46 -40
65 -78 54 -15 -4 -31 -6 -37 -4 -5 2 -36 4 -67 5 -67 2 -95 -17 -84 -59 7 -27
-9 -45 -26 -28 -6 6 -17 8 -24 5 -17 -6 -19 18 -2 35 15 15 -9 45 -33 39 -33
-9 -44 9 -22 36 16 21 22 23 37 12 18 -14 168 -16 182 -3 4 4 20 -2 37 -14
l30 -22 22 28 c19 24 23 25 34 12 13 -16 79 -16 115 -1 11 5 21 3 26 -4 15
-25 40 18 40 68 0 57 -17 78 -49 62 -14 -8 -22 -8 -26 0 -4 5 -12 8 -18 6 -7
-2 -23 0 -36 5 -39 14 -71 -14 -71 -62 0 -38 -1 -39 -20 -28 -11 7 -20 22 -20
33 0 43 -21 56 -90 57 -36 0 -74 -3 -85 -8 -14 -5 -10 2 13 25 38 39 40 60 8
98 -20 23 -22 31 -13 51 9 19 17 23 39 20 16 -3 31 -1 34 4 3 4 -12 8 -33 8
-28 0 -34 3 -23 10 8 5 12 10 8 10 -4 0 -2 15 3 33 6 17 16 52 24 77 7 25 16
53 20 63 4 9 3 17 -2 17 -9 0 -83 -213 -83 -238 0 -7 -7 -12 -15 -12 -12 0
-11 8 5 53 30 84 140 432 140 445 0 9 -110 12 -453 12 l-453 -1 -28 -24z m544
-554 c0 -42 -18 -65 -44 -55 -23 9 -20 27 4 19 18 -6 20 -2 20 34 0 23 5 41
10 41 6 0 10 -17 10 -39z m46 -41 c9 0 14 11 14 30 0 17 5 30 10 30 6 0 10
-17 10 -38 0 -35 -2 -38 -27 -37 -26 0 -28 3 -29 40 -1 32 -1 34 3 8 3 -20 10
-33 19 -33z m152 18 c2 -22 -1 -38 -7 -38 -6 0 -11 16 -11 36 0 21 -4 33 -10
29 -5 -3 -10 -19 -10 -36 0 -16 -4 -29 -10 -29 -5 0 -10 16 -10 36 0 46 -23
41 -31 -7 l-6 -34 -2 41 -1 41 48 -1 c47 -1 47 -1 50 -38z m80 8 c4 -30 -13
-49 -35 -41 -8 3 -13 -4 -13 -16 0 -11 -3 -18 -7 -16 -5 3 -6 27 -5 55 4 46 5
49 30 48 22 -1 28 -6 30 -30z m-252 -67 c3 -6 1 -16 -5 -22 -6 -6 -11 -19 -11
-30 0 -10 -5 -15 -10 -12 -6 4 -8 11 -4 16 3 5 0 17 -7 25 -10 13 -10 17 2 25
19 12 26 11 35 -2z m162 -3 c10 -6 10 -11 2 -21 -6 -7 -8 -24 -5 -37 4 -16 1
-29 -9 -37 -14 -12 -16 -9 -16 21 0 22 -7 42 -20 53 -11 10 -20 21 -20 24 0 9
53 7 68 -3z m-118 0 c0 -3 -4 -8 -10 -11 -5 -3 -10 -1 -10 4 0 6 5 11 10 11 6
0 10 -2 10 -4z m-90 -36 c0 -5 -9 -10 -20 -10 -11 0 -20 -5 -20 -11 0 -5 4 -8
9 -4 5 3 16 -2 25 -11 12 -12 14 -20 5 -35 -12 -23 -50 -22 -57 1 -5 13 -3 13
11 2 18 -16 37 -8 37 15 0 11 -6 14 -25 9 -23 -6 -25 -3 -25 24 0 27 3 30 30
30 17 0 30 -4 30 -10z m70 -40 c0 -27 -4 -50 -10 -50 -5 0 -10 23 -10 50 0 28
5 50 10 50 6 0 10 -22 10 -50z m80 35 c17 -20 6 -43 -22 -47 -15 -2 -22 -9
-20 -20 2 -10 -2 -18 -8 -18 -5 0 -10 22 -10 50 0 46 2 50 24 50 13 0 29 -7
36 -15z m119 1 c9 -10 9 -16 1 -21 -8 -5 -8 -11 1 -21 6 -7 9 -21 5 -29 -7
-19 -40 -19 -56 0 -15 18 1 20 18 3 9 -9 15 -9 24 0 10 10 8 14 -10 18 -25 7
-30 24 -7 24 8 0 15 5 15 11 0 6 -9 9 -20 6 -20 -5 -26 3 -13 16 11 11 30 8
42 -7z m91 4 c0 -5 -11 -10 -25 -10 -14 0 -25 -4 -25 -10 0 -5 9 -10 20 -10
11 0 20 -4 20 -10 0 -5 -9 -10 -20 -10 -12 0 -20 -7 -20 -16 0 -11 6 -15 20
-11 11 3 23 1 26 -4 3 -5 -9 -9 -25 -9 -30 0 -31 1 -31 50 0 49 1 50 30 50 17
0 30 -4 30 -10z m-90 -5 c0 -5 -9 -10 -20 -10 -11 0 -20 -4 -20 -10 0 -5 3 -9
8 -9 25 4 33 -3 30 -28 -2 -22 -8 -28 -27 -28 -13 0 -27 7 -29 15 -4 13 -3 13
11 2 18 -16 37 -8 37 15 0 11 -6 14 -25 9 -23 -6 -25 -3 -25 24 0 27 3 30 30
30 17 0 30 -4 30 -10z m40 -10 c0 -13 7 -20 20 -20 13 0 20 7 20 20 0 11 5 20
10 20 6 0 10 -22 10 -50 0 -27 -4 -50 -10 -50 -5 0 -10 11 -10 25 0 18 -5 25
-20 25 -15 0 -20 -7 -20 -25 0 -14 -4 -25 -10 -25 -5 0 -10 23 -10 50 0 28 5
50 10 50 6 0 10 -9 10 -20z m-450 -74 c0 -23 -16 -27 -17 -5 -1 10 2 19 8 19
5 0 9 -6 9 -14z m299 -17 c-13 -26 -20 -21 -12 9 3 12 9 19 14 16 5 -3 4 -14
-2 -25z m-329 -76 c0 -18 -34 -93 -41 -93 -12 0 -11 11 6 40 20 35 18 48 -7
53 -17 3 -14 5 10 6 17 0 32 -2 32 -6z m30 -10 c0 -9 12 -29 27 -45 14 -15 24
-31 20 -34 -4 -4 -15 4 -26 17 l-20 24 -1 -22 c0 -13 -4 -23 -10 -23 -5 0 -10
23 -10 50 0 28 5 50 10 50 6 0 10 -8 10 -17z m35 -3 c-10 -11 -20 -18 -23 -15
-7 6 18 35 31 35 5 0 2 -9 -8 -20z m152 4 c3 -8 -4 -25 -17 -40 l-23 -24 21 0
c12 0 22 -4 22 -10 0 -5 -13 -10 -30 -10 -35 0 -39 18 -10 45 20 18 27 45 12
45 -4 0 -13 -5 -20 -12 -7 -7 -12 -8 -12 -2 0 27 47 34 57 8z m78 -9 c1 -11 4
-26 9 -33 12 -19 -14 -43 -43 -40 -14 2 -25 6 -23 11 1 4 2 25 2 48 0 38 1 40
28 37 19 -2 27 -9 27 -23z m90 -25 c0 -43 -1 -45 -32 -48 l-33 -3 0 51 0 51
33 -3 c31 -3 32 -5 32 -48z m-275 -50 c0 -11 -4 -20 -9 -20 -6 0 -9 9 -8 20 1
11 5 20 9 20 4 0 8 -9 8 -20z"/>
<path d="M863 1863 c-18 -7 -16 -43 2 -43 18 0 31 28 19 39 -5 5 -15 6 -21 4z"/>
<path d="M700 1715 c0 -8 9 -15 20 -15 11 0 20 7 20 15 0 8 -9 15 -20 15 -11
0 -20 -7 -20 -15z"/>
<path d="M990 1720 c0 -5 7 -10 15 -10 8 0 15 5 15 10 0 6 -7 10 -15 10 -8 0
-15 -4 -15 -10z"/>
<path d="M990 1545 c0 -10 7 -15 18 -13 21 4 19 22 -2 26 -10 2 -16 -3 -16
-13z"/>
<path d="M990 1505 c0 -8 9 -15 20 -15 11 0 20 7 20 15 0 8 -9 15 -20 15 -11
0 -20 -7 -20 -15z"/>
<path d="M1080 1545 c0 -8 7 -15 15 -15 8 0 15 7 15 15 0 8 -7 15 -15 15 -8 0
-15 -7 -15 -15z"/>
<path d="M1080 1506 c0 -10 9 -16 21 -16 24 0 21 23 -4 28 -10 2 -17 -3 -17
-12z"/>
<path d="M1793 2428 c3 -7 22 -64 43 -125 l37 -113 61 2 61 1 -54 6 -54 6 -18
52 c-13 38 -14 53 -6 57 7 2 3 5 -8 6 l-20 1 20 9 c16 7 17 9 3 9 -9 1 -19 10
-22 21 -3 11 -9 29 -12 40 -5 18 -1 20 51 20 39 0 57 -4 61 -14 6 -14 73 -52
86 -48 4 1 5 -4 2 -11 -6 -17 96 -18 117 -1 25 19 51 25 65 13 11 -9 14 -8 14
2 0 7 9 4 24 -10 14 -13 31 -21 38 -18 8 3 5 6 -6 6 -40 2 0 19 57 24 52 5 57
4 57 -14 0 -12 7 -19 19 -19 19 0 18 2 -2 55 -19 47 -23 52 -30 32 -11 -30
-10 -29 -74 -34 -32 -2 -66 -5 -75 -7 -9 -2 -19 1 -21 7 -2 7 -21 5 -58 -6
-49 -16 -59 -16 -112 -2 -32 8 -60 15 -63 15 -2 0 -9 11 -14 25 -9 24 -13 25
-91 25 -60 0 -79 -3 -76 -12z"/>
<path d="M2646 2403 c9 -21 18 -46 21 -55 3 -10 14 -18 24 -18 19 0 19 1 0 28
-23 32 -36 72 -24 72 5 0 30 -13 56 -30 55 -35 60 -31 15 10 -24 21 -43 29
-71 30 l-37 0 16 -37z"/>
<path d="M1412 2410 c0 -14 2 -19 5 -12 2 6 2 18 0 25 -3 6 -5 1 -5 -13z"/>
<path d="M616 2403 c-6 -14 -5 -15 5 -6 7 7 10 15 7 18 -3 3 -9 -2 -12 -12z"/>
<path d="M175 2389 c-4 -6 -5 -12 -2 -15 2 -3 7 2 10 11 7 17 1 20 -8 4z"/>
<path d="M593 2368 c-19 -24 -24 -38 -15 -38 5 0 14 11 20 25 13 27 10 32 -5
13z"/>
<path d="M1411 2358 c-1 -26 2 -28 37 -27 35 1 35 2 8 8 -16 3 -33 15 -37 26
-7 17 -8 16 -8 -7z"/>
<path d="M175 2350 c-10 -11 -15 -20 -11 -20 11 0 39 30 34 36 -3 2 -13 -5
-23 -16z"/>
<path d="M126 2344 c-17 -12 -17 -14 -4 -14 9 0 20 5 23 11 11 17 2 18 -19 3z"/>
<path d="M530 2340 c-23 -7 -23 -8 -3 -9 12 -1 25 4 28 9 3 6 5 10 3 9 -2 -1
-14 -5 -28 -9z"/>
<path d="M1370 2340 c-12 -8 -11 -10 8 -10 12 0 22 5 22 10 0 13 -11 13 -30 0z"/>
<path d="M2210 2340 c-12 -8 -10 -10 8 -10 13 0 20 4 17 10 -7 12 -6 12 -25 0z"/>
<path d="M648 2333 c7 -3 16 -2 19 1 4 3 -2 6 -13 5 -11 0 -14 -3 -6 -6z"/>
<path d="M878 2333 c6 -2 18 -2 25 0 6 3 1 5 -13 5 -14 0 -19 -2 -12 -5z"/>
<path d="M1098 2333 c12 -2 32 -2 45 0 12 2 2 4 -23 4 -25 0 -35 -2 -22 -4z"/>
<path d="M1628 2333 c7 -3 16 -2 19 1 4 3 -2 6 -13 5 -11 0 -14 -3 -6 -6z"/>
<path d="M2338 2333 c7 -3 16 -2 19 1 4 3 -2 6 -13 5 -11 0 -14 -3 -6 -6z"/>
<path d="M83 2313 c17 -4 17 -7 -5 -31 -20 -24 -19 -24 10 2 17 17 32 31 32
33 0 2 -12 2 -27 2 -19 -1 -22 -3 -10 -6z"/>
<path d="M145 2310 c-16 -7 -11 -9 20 -9 29 -1 36 2 25 9 -17 11 -19 11 -45 0z"/>
<path d="M218 2313 c7 -3 16 -2 19 1 4 3 -2 6 -13 5 -11 0 -14 -3 -6 -6z"/>
<path d="M276 2309 c7 -12 184 -10 184 1 0 7 -34 10 -94 8 -52 -1 -93 -5 -90
-9z"/>
<path d="M515 2310 c3 -5 -2 -22 -11 -37 -15 -26 -15 -27 1 -8 31 37 37 55 20
55 -9 0 -13 -4 -10 -10z"/>
<path d="M555 2310 c-3 -5 1 -10 9 -10 8 0 18 5 21 10 3 6 -1 10 -9 10 -8 0
-18 -4 -21 -10z"/>
<path d="M737 2309 c7 -7 15 -10 18 -7 3 3 -2 9 -12 12 -14 6 -15 5 -6 -5z"/>
<path d="M773 2308 c-6 -11 39 -10 55 1 9 5 3 8 -18 7 -18 -1 -34 -4 -37 -8z"/>
<path d="M1100 2313 c0 -5 19 -9 42 -10 28 -1 37 2 27 8 -17 11 -69 12 -69 2z"/>
<path d="M1360 2311 c21 -6 24 -12 25 -56 0 -28 -4 -53 -10 -57 -6 -5 -3 -8 8
-8 14 0 17 10 17 65 l0 65 -32 -1 c-30 -1 -31 -2 -8 -8z"/>
<path d="M1410 2293 c1 -24 2 -25 11 -10 5 9 18 17 27 18 14 0 13 2 -3 9 -31
14 -35 12 -35 -17z"/>
<path d="M1495 2309 c-4 -5 3 -9 14 -9 26 0 35 15 11 17 -11 1 -22 -2 -25 -8z"/>
<path d="M1558 2313 c6 -2 18 -2 25 0 6 3 1 5 -13 5 -14 0 -19 -2 -12 -5z"/>
<path d="M1630 2310 c31 -10 66 -12 57 -3 -4 3 -24 8 -45 9 -31 2 -33 1 -12
-6z"/>
<path d="M1720 2310 c8 -5 20 -10 25 -10 6 0 3 5 -5 10 -8 5 -19 10 -25 10 -5
0 -3 -5 5 -10z"/>
<path d="M1791 2308 c14 -12 39 -75 39 -100 0 -5 -92 -8 -204 -8 l-205 0 -4
28 c-4 25 -4 25 -6 -5 l-1 -33 220 0 c170 0 220 3 219 13 0 6 -8 35 -18 62
-12 34 -24 51 -37 53 -17 3 -18 2 -3 -10z"/>
<path d="M1925 2310 c-3 -5 3 -10 15 -10 12 0 18 5 15 10 -3 6 -10 10 -15 10
-5 0 -12 -4 -15 -10z"/>
<path d="M1976 2308 c3 -4 9 -8 15 -8 5 0 9 4 9 8 0 5 -7 9 -15 9 -8 0 -12 -4
-9 -9z"/>
<path d="M2141 2316 c2 -2 18 -6 34 -10 22 -5 26 -4 15 4 -14 9 -59 15 -49 6z"/>
<path d="M2230 2310 c20 -13 33 -13 25 0 -3 6 -14 10 -23 10 -15 0 -15 -2 -2
-10z"/>
<path d="M2280 2300 c6 -11 12 -20 13 -20 2 0 3 9 3 20 0 11 -6 20 -13 20 -11
0 -11 -5 -3 -20z"/>
<path d="M2340 2316 c0 -2 11 -6 25 -8 13 -3 22 -1 19 3 -5 9 -44 13 -44 5z"/>
<path d="M2407 2301 c6 -23 -26 -70 -47 -71 -9 0 -21 -5 -26 -10 -6 -6 -40
-15 -75 -19 l-64 -8 68 -2 c41 -1 67 3 67 10 0 5 4 8 10 4 12 -7 47 13 77 44
29 30 31 71 4 71 -14 0 -18 -5 -14 -19z"/>
<path d="M2680 2309 c0 -5 5 -9 12 -9 6 0 23 -10 37 -22 22 -20 23 -20 8 -2
-9 11 -17 25 -17 30 0 5 -9 10 -20 11 -11 1 -20 -2 -20 -8z"/>
<path d="M2730 2316 c0 -2 7 -7 16 -10 8 -3 12 -2 9 4 -6 10 -25 14 -25 6z"/>
<path d="M678 2303 c7 -3 16 -2 19 1 4 3 -2 6 -13 5 -11 0 -14 -3 -6 -6z"/>
<path d="M1888 2303 c7 -3 16 -2 19 1 4 3 -2 6 -13 5 -11 0 -14 -3 -6 -6z"/>
<path d="M89 2264 c-13 -14 -17 -23 -9 -19 13 5 46 45 37 45 -2 0 -14 -11
-28 -26z"/>
<path d="M2708 2242 c15 -44 21 -52 42 -51 17 0 20 3 10 7 -8 4 -16 16 -18 27
-2 11 -14 31 -27 44 l-24 25 17 -52z"/>
<path d="M514 2248 c-4 -7 -14 -23 -22 -35 l-14 -23 73 2 74 2 -63 3 -62 4 15
29 c15 29 14 43 -1 18z"/>
<path d="M473 2224 c-3 -9 -15 -20 -27 -25 -17 -7 -18 -9 -2 -6 17 2 57 47 42
47 -4 0 -9 -7 -13 -16z"/>
<path d="M83 2193 c15 -2 39 -2 55 0 15 2 2 4 -28 4 -30 0 -43 -2 -27 -4z"/>
<path d="M198 2193 c12 -2 30 -2 40 0 9 3 -1 5 -23 4 -22 0 -30 -2 -17 -4z"/>
<path d="M278 2193 c12 -2 30 -2 40 0 9 3 -1 5 -23 4 -22 0 -30 -2 -17 -4z"/>
<path d="M358 2193 c12 -2 32 -2 45 0 12 2 2 4 -23 4 -25 0 -35 -2 -22 -4z"/>
<path d="M668 2193 c23 -2 61 -2 85 0 23 2 4 4 -43 4 -47 0 -66 -2 -42 -4z"/>
<path d="M813 2193 c9 -2 25 -2 35 0 9 3 1 5 -18 5 -19 0 -27 -2 -17 -5z"/>
<path d="M1073 2193 c9 -2 23 -2 30 0 6 3 -1 5 -18 5 -16 0 -22 -2 -12 -5z"/>
<path d="M1163 2193 c26 -2 68 -2 95 0 26 2 4 3 -48 3 -52 0 -74 -1 -47 -3z"/>
<path d="M1323 2193 c9 -2 23 -2 30 0 6 3 -1 5 -18 5 -16 0 -22 -2 -12 -5z"/>
<path d="M2043 2193 c26 -2 68 -2 95 0 26 2 4 3 -48 3 -52 0 -74 -1 -47 -3z"/>
<path d="M427 2159 c-4 -16 -3 -18 9 -8 16 13 19 29 5 29 -5 0 -11 -9 -14 -21z"/>
<path d="M465 2170 c-3 -5 -1 -10 4 -10 6 0 11 5 11 10 0 6 -2 10 -4 10 -3 0
-8 -4 -11 -10z"/>
<path d="M1387 2148 c8 -46 13 -48 13 -5 0 21 -4 37 -10 37 -5 0 -7 -14 -3
-32z"/>
<path d="M1410 2148 c0 -36 4 -35 14 5 4 16 2 27 -4 27 -5 0 -10 -14 -10 -32z"/>
<path d="M1845 2163 c4 -10 10 -27 13 -38 2 -11 8 -25 13 -30 4 -6 11 -34 15
-63 4 -35 11 -52 21 -52 16 0 16 -3 -24 123 -14 42 -30 77 -35 77 -6 0 -7 -8
-3 -17z"/>
<path d="M1880 2174 c0 -11 73 -229 78 -234 2 -3 6 0 8 5 2 6 22 9 44 9 22 -1
40 2 40 7 0 5 -24 9 -52 10 -29 0 -47 3 -40 6 9 3 10 9 3 17 -11 13 -51 133
-51 154 0 6 10 12 22 12 12 0 19 2 17 4 -8 7 -69 15 -69 10z"/>
<path d="M2197 2154 c-14 -14 -29 -39 -32 -55 -6 -26 -2 -35 29 -65 31 -30 33
-34 14 -34 -12 0 -19 -3 -15 -6 3 -4 65 -9 137 -11 117 -5 130 -4 130 12 0 15
1 15 16 1 8 -9 21 -16 27 -16 8 0 7 3 -2 9 -14 9 -4 19 17 15 6 -1 17 -2 23
-3 5 0 7 -6 4 -12 -5 -7 15 -9 59 -7 36 2 66 6 66 10 0 4 13 14 29 22 16 9 32
23 36 33 12 30 16 133 5 133 -11 0 -14 -25 -11 -76 1 -18 -6 -40 -18 -55 -18
-23 -26 -24 -128 -25 -59 -1 -128 -7 -152 -15 -73 -21 -232 16 -248 57 -11 29
18 73 56 85 53 17 61 29 19 29 -25 0 -43 -8 -61 -26z"/>
<path d="M128 2163 c12 -2 30 -2 40 0 9 3 -1 5 -23 4 -22 0 -30 -2 -17 -4z"/>
<path d="M348 2163 c7 -3 16 -2 19 1 4 3 -2 6 -13 5 -11 0 -14 -3 -6 -6z"/>
<path d="M1148 2163 c12 -2 30 -2 40 0 9 3 -1 5 -23 4 -22 0 -30 -2 -17 -4z"/>
<path d="M1648 2163 c7 -3 16 -2 19 1 4 3 -2 6 -13 5 -11 0 -14 -3 -6 -6z"/>
<path d="M1708 2163 c6 -2 18 -2 25 0 6 3 1 5 -13 5 -14 0 -19 -2 -12 -5z"/>
<path d="M1768 2163 c6 -2 18 -2 25 0 6 3 1 5 -13 5 -14 0 -19 -2 -12 -5z"/>
<path d="M426 2113 c-6 -14 -5 -15 5 -6 7 7 10 15 7 18 -3 3 -9 -2 -12 -12z"/>
<path d="M359 2053 c-18 -27 -37 -51 -43 -55 -6 -4 -8 -10 -4 -13 3 -4 25 21
47 54 23 34 40 61 37 61 -3 0 -20 -21 -37 -47z"/>
<path d="M1392 2059 c-2 -35 -7 -51 -24 -63 l-23 -17 28 6 27 5 0 -327 0 -328
685 3 c385 1 685 6 685 11 0 5 -6 11 -14 14 -7 3 -311 3 -675 0 l-661 -5 2
298 3 299 158 1 c86 1 160 4 164 8 4 4 -62 7 -147 6 -203 -1 -202 -1 -160 15
l35 14 -37 -4 -37 -3 -4 56 c-3 54 -3 54 -5 11z"/>
<path d="M389 2053 c-13 -16 -12 -17 4 -4 9 7 17 15 17 17 0 8 -8 3 -21 -13z"/>
<path d="M356 2005 c-16 -24 -15 -25 3 -25 11 0 23 5 27 12 5 7 3 8 -6 3 -10
-6 -12 -3 -8 13 8 28 4 28 -16 -3z"/>
<path d="M957 1989 c7 -7 15 -10 18 -7 3 3 -2 9 -12 12 -14 6 -15 5 -6 -5z"/>
<path d="M1090 1990 c0 -5 5 -10 11 -10 5 0 7 5 4 10 -3 6 -8 10 -11 10 -2 0
-4 -4 -4 -10z"/>
<path d="M1120 1989 c0 -5 5 -7 10 -4 6 3 10 8 10 11 0 2 -4 4 -10 4 -5 0 -10
-5 -10 -11z"/>
<path d="M1205 1990 c-3 -6 1 -7 9 -4 18 7 21 14 7 14 -6 0 -13 -4 -16 -10z"/>
<path d="M1495 1990 c-3 -5 -1 -10 4 -10 6 0 11 5 11 10 0 6 -2 10 -4 10 -3 0
-8 -4 -11 -10z"/>
<path d="M2045 1990 c3 -5 12 -7 20 -3 21 7 19 13 -6 13 -11 0 -18 -4 -14 -10z"/>
<path d="M278 1983 c7 -3 16 -2 19 1 4 3 -2 6 -13 5 -11 0 -14 -3 -6 -6z"/>
<path d="M118 1963 c7 -3 16 -2 19 1 4 3 -2 6 -13 5 -11 0 -14 -3 -6 -6z"/>
<path d="M283 1955 c0 -18 19 -15 25 3 2 7 -3 12 -10 12 -8 0 -15 -7 -15 -15z"/>
<path d="M322 1950 c-12 -20 -6 -26 13 -12 12 9 18 32 7 32 -4 0 -13 -9 -20
-20z"/>
<path d="M496 1955 c-3 -9 0 -15 8 -15 8 0 16 6 19 13 3 9 7 9 19 0 12 -10 15
-10 15 0 0 19 -54 20 -61 2z"/>
<path d="M658 1963 c6 -2 18 -2 25 0 6 3 1 5 -13 5 -14 0 -19 -2 -12 -5z"/>
<path d="M985 1960 c3 -5 8 -10 11 -10 2 0 4 5 4 10 0 6 -5 10 -11 10 -5 0 -7
-4 -4 -10z"/>
<path d="M1018 1963 c7 -3 16 -2 19 1 4 3 -2 6 -13 5 -11 0 -14 -3 -6 -6z"/>
<path d="M1056 1961 c9 -9 94 -7 94 2 0 4 -22 7 -50 6 -27 -2 -47 -5 -44 -8z"/>
<path d="M1344 1958 c-4 -7 -3 -8 4 -4 9 5 12 -69 12 -295 l0 -302 -647 6
c-357 3 -663 3 -681 0 -108 -17 41 -23 658 -25 l690 -3 0 318 c0 269 -2 317
-14 317 -8 0 -18 -5 -22 -12z"/>
<path d="M1863 1961 c42 -6 66 -21 67 -41 0 -6 -181 -6 -190 0 -14 8 -87 6
-97 -2 -7 -6 -13 -22 -13 -35 0 -16 -5 -23 -12 -20 -7 2 -12 10 -10 16 5 25
-19 51 -48 51 -54 0 -79 -71 -39 -111 21 -21 72 -24 97 -6 7 6 17 6 25 0 6 -6
59 -10 117 -9 76 2 114 -2 138 -13 30 -14 31 -17 16 -28 -21 -15 -28 -118 -9
-133 14 -12 52 -10 73 4 8 5 18 4 25 -3 16 -16 49 -14 75 5 17 12 20 19 12 34
-7 13 -7 21 0 25 18 11 10 43 -16 64 -28 22 -51 19 -75 -11 -15 -19 -16 -19
-32 5 -26 40 -3 50 116 51 56 1 108 0 115 -2 8 -3 13 -29 14 -76 l2 -71 3 63
c4 56 7 64 29 72 30 12 61 77 47 99 -11 18 -34 20 -195 22 -71 1 -128 6 -128
11 0 4 -7 8 -16 8 -9 0 -18 9 -21 20 -5 17 -13 20 -62 19 l-56 -2 48 -6z
m-276 -67 c2 -7 -6 -10 -22 -7 -20 4 -25 1 -25 -15 0 -28 17 -37 37 -20 14 11
16 11 11 -2 -7 -21 -42 -24 -58 -5 -19 23 3 67 32 63 12 -2 23 -8 25 -14z m89
-9 c3 -14 10 -25 14 -25 4 0 11 11 14 25 10 39 26 29 26 -15 0 -22 -5 -40 -10
-40 -6 0 -8 12 -5 28 l5 27 -12 -27 c-7 -16 -15 -28 -19 -28 -4 0 -12 12 -18
28 l-11 27 4 -27 c2 -16 -1 -28 -5 -28 -5 0 -9 18 -9 40 0 44 16 54 26 15z
m218 -23 c1 -18 -3 -31 -8 -29 -12 4 -26 53 -18 62 13 13 25 -3 26 -33z m63
17 c-2 -11 -10 -25 -18 -30 -11 -7 -10 -9 4 -9 12 0 17 -6 15 -17 -2 -10 -12
-18 -23 -18 -16 0 -20 7 -21 38 -2 36 7 47 43 56 2 1 1 -8 0 -20z m-168 -3
c15 -18 3 -46 -20 -46 -22 0 -34 22 -25 45 7 19 30 19 45 1z m69 -18 c2 -16
-1 -28 -7 -28 -6 0 -11 12 -11 27 0 29 -15 22 -23 -12 -3 -13 -5 -8 -6 13 -1
29 2 33 22 30 16 -2 23 -11 25 -30z m157 2 c0 -18 -6 -26 -22 -28 -18 -3 -23
1 -23 21 0 28 9 39 30 35 9 -2 15 -14 15 -28z m97 16 c11 -16 10 -46 -2 -46
-5 0 -10 12 -10 26 0 30 -19 22 -21 -9 -1 -20 -2 -20 -6 -2 -8 34 -23 41 -23
12 0 -15 -4 -27 -10 -27 -5 0 -10 13 -10 30 0 28 2 29 38 28 20 -1 40 -6 44
-12z m63 -5 c0 -8 -6 -16 -14 -19 -10 -3 -12 0 -8 12 4 9 2 16 -3 16 -18 0
-11 -38 8 -43 13 -4 11 -5 -5 -6 -18 -1 -23 4 -23 22 0 13 3 27 7 31 11 11 38
2 38 -13z m71 -3 l7 -23 9 24 c4 13 11 22 13 19 7 -7 -22 -75 -36 -83 -5 -4
-13 -4 -17 0 -3 3 -1 10 6 14 9 5 11 17 6 35 -8 32 -26 29 -35 -5 -6 -21 -7
-21 -8 9 -1 28 2 32 23 32 17 0 27 -7 32 -22z m-286 -203 c5 3 11 1 15 -5 4
-6 -8 -10 -29 -10 -20 0 -36 5 -36 10 0 6 6 9 13 8 7 -2 13 10 15 31 3 27 0
33 -12 28 -9 -4 -16 -2 -16 3 0 5 8 10 18 12 14 3 18 -5 20 -40 2 -23 7 -40
12 -37z m108 61 c2 -10 -7 -29 -20 -43 l-23 -26 22 6 c13 3 26 1 29 -4 3 -5
-11 -9 -30 -9 -43 0 -45 8 -11 40 14 13 25 28 25 33 0 5 -11 6 -25 3 -25 -6
-36 8 -12 17 22 10 42 2 45 -17z m-58 -26 c0 -5 -9 -10 -20 -10 -11 0 -20 5
-20 10 0 6 9 10 20 10 11 0 20 -4 20 -10z"/>
<path d="M1928 1823 c7 -3 16 -2 19 1 4 3 -2 6 -13 5 -11 0 -14 -3 -6 -6z"/>
<path d="M1755 1870 c-7 -12 2 -30 16 -30 5 0 9 9 9 20 0 21 -15 27 -25 10z"/>
<path d="M1986 1873 c-12 -12 -6 -33 9 -33 8 0 15 6 15 14 0 17 -14 28 -24 19z"/>
<path d="M2188 1963 c6 -2 18 -2 25 0 6 3 1 5 -13 5 -14 0 -19 -2 -12 -5z"/>
<path d="M2378 1963 c7 -3 16 -2 19 1 4 3 -2 6 -13 5 -11 0 -14 -3 -6 -6z"/>
<path d="M2455 1960 c3 -5 15 -15 26 -21 18 -9 19 -9 7 10 -7 12 -19 21 -26
21 -7 0 -10 -4 -7 -10z"/>
<path d="M2500 1955 c7 -8 19 -15 27 -15 12 0 12 2 -1 15 -8 8 -20 15 -27 15
-9 0 -8 -4 1 -15z"/>
<path d="M2573 1963 c9 -2 23 -2 30 0 6 3 -1 5 -18 5 -16 0 -22 -2 -12 -5z"/>
<path d="M2625 1960 c3 -5 12 -7 20 -3 21 7 19 13 -6 13 -11 0 -18 -4 -14 -10z"/>
<path d="M2693 1963 c15 -2 37 -2 50 0 12 2 0 4 -28 4 -27 0 -38 -2 -22 -4z"/>
<path d="M48 1943 c6 -2 18 -2 25 0 6 3 1 5 -13 5 -14 0 -19 -2 -12 -5z"/>
<path d="M158 1943 c7 -3 16 -2 19 1 4 3 -2 6 -13 5 -11 0 -14 -3 -6 -6z"/>
<path d="M385 1940 c3 -5 12 -7 20 -3 21 7 19 13 -6 13 -11 0 -18 -4 -14 -10z"/>
<path d="M2764 1650 c0 -157 2 -221 3 -142 2 78 2 206 0 285 -1 78 -3 14 -3
-143z"/>
<path d="M2382 1803 c-40 -24 -33 -31 9 -9 40 21 156 17 202 -6 52 -26 58 -17
10 13 -54 34 -167 35 -221 2z"/>
<path d="M227 1791 c-56 -17 -97 -44 -103 -68 -8 -32 6 -57 35 -61 22 -4 22
-6 18 -112 -3 -70 -1 -112 6 -119 6 -6 52 -11 108 -11 125 0 124 -1 115 135
l-7 105 25 0 c29 0 50 45 34 73 -18 32 -89 60 -156 61 -34 1 -68 -1 -75 -3z
m173 -41 c31 -16 40 -26 40 -46 0 -33 -29 -29 -48 6 -12 22 -13 4 -7 -122 l6
-148 -100 0 -101 0 5 75 c13 198 13 231 2 203 -17 -42 -57 -49 -57 -9 0 9 17
27 38 39 51 30 166 31 222 2z"/>
<path d="M290 1740 l-25 -8 28 -1 c15 -1 27 4 27 9 0 6 -1 10 -2 9 -2 -1 -14
-5 -28 -9z"/>
<path d="M254 1687 c-3 -9 -4 -28 -2 -44 2 -20 8 -28 23 -28 28 0 33 35 6 42
-12 3 -21 10 -21 15 0 6 9 8 21 5 13 -3 19 -1 16 6 -6 18 -36 20 -43 4z m26
-53 c0 -8 -4 -12 -10 -9 -5 3 -10 10 -10 16 0 5 5 9 10 9 6 0 10 -7 10 -16z"/>
<path d="M310 1655 c0 -25 5 -45 10 -45 6 0 10 20 10 45 0 25 -4 45 -10 45 -5
0 -10 -20 -10 -45z"/>
<path d="M284 1506 c-19 -15 -19 -15 0 -12 11 2 22 8 24 14 5 16 0 15 -24 -2z"/>
<path d="M251 1494 c0 -11 3 -14 6 -6 3 7 2 16 -1 19 -3 4 -6 -2 -5 -13z"/>
<path d="M2423 1779 c-6 -6 -9 -18 -6 -28 3 -13 15 -16 66 -13 66 3 83 12 74
36 -5 12 -21 16 -65 16 -32 0 -63 -5 -69 -11z m127 -11 c0 -9 -19 -13 -60 -13
-41 0 -60 4 -60 13 0 8 19 12 60 12 41 0 60 -4 60 -12z"/>
<path d="M2380 1745 c0 -14 -7 -28 -15 -31 -17 -7 -20 -25 -3 -21 8 1 11 -32
10 -118 -2 -157 13 -121 22 52 4 84 2 134 -4 138 -6 4 -10 -5 -10 -20z"/>
<path d="M2586 1630 c2 -82 9 -149 15 -155 8 -7 9 25 4 108 -7 110 -6 117 11
117 19 1 19 1 0 11 -15 9 -16 13 -5 20 11 7 11 9 -3 9 -9 0 -19 8 -22 18 -3 9
-3 -48 0 -128z"/>
<path d="M2322 1735 c0 -16 2 -22 5 -12 2 9 2 23 0 30 -3 6 -5 -1 -5 -18z"/>
<path d="M2439 1728 c0 -2 -1 -22 -2 -46 -2 -32 2 -42 13 -42 12 0 14 10 12
45 -2 25 -8 45 -13 45 -5 0 -9 -1 -10 -2z"/>
<path d="M2487 1724 c-15 -15 -6 -25 16 -18 l22 6 -22 -24 c-31 -33 -29 -48 7
-48 17 0 30 5 30 11 0 6 -9 9 -20 6 -25 -7 -25 -2 1 24 11 11 18 26 16 32 -4
14 -39 21 -50 11z"/>
<path d="M2635 1720 c3 -5 8 -10 11 -10 2 0 4 5 4 10 0 6 -5 10 -11 10 -5 0
-7 -4 -4 -10z"/>
<path d="M2211 1624 c0 -11 3 -14 6 -6 3 7 2 16 -1 19 -3 4 -6 -2 -5 -13z"/>
<path d="M1860 1593 c-14 -3 -29 -8 -34 -13 -5 -5 -17 -4 -26 3 -29 17 -50 -7
-50 -57 0 -56 19 -83 48 -67 12 6 23 7 26 2 4 -5 26 -8 51 -6 29 2 49 -2 56
-11 17 -20 47 -17 59 6 7 12 16 18 23 13 13 -8 85 -16 132 -15 17 1 40 1 53 2
25 0 29 7 35 66 5 50 -11 87 -33 74 -8 -5 -22 -5 -33 2 -10 5 -31 6 -45 2 -15
-4 -31 -6 -37 -5 -59 16 -85 -3 -85 -62 0 -39 0 -40 -20 -22 -11 10 -20 28
-20 41 0 24 -35 55 -60 53 -8 -1 -26 -4 -40 -6z m-43 -63 c20 0 24 4 20 20 -3
11 -1 20 4 20 5 0 9 -23 9 -51 0 -27 -4 -48 -9 -45 -5 3 -7 15 -4 26 4 16 0
20 -20 20 -20 0 -27 -6 -30 -27 -2 -16 -4 -3 -4 27 0 30 2 45 4 33 3 -17 11
-23 30 -23z m119 -12 c1 -26 -2 -45 -7 -42 -5 3 -9 11 -9 19 0 7 -7 15 -15 19
-11 4 -15 -2 -15 -20 0 -14 -4 -23 -9 -20 -7 5 -9 78 -2 94 0 2 13 2 28 0 26
-3 28 -6 29 -50z m150 0 c1 -26 -2 -45 -7 -42 -5 3 -9 11 -9 19 0 7 -7 15 -15
19 -11 4 -15 -1 -15 -19 0 -14 -4 -25 -10 -25 -5 0 -10 23 -10 51 l0 50 33 -3
c31 -3 32 -5 33 -50z m86 40 c2 -7 3 -29 3 -48 0 -32 -3 -35 -32 -38 l-33 -3
0 50 c0 50 1 51 29 51 16 0 31 -6 33 -12z m48 -32 c0 -25 -4 -48 -10 -51 -6
-4 -10 13 -10 44 0 28 5 51 10 51 6 0 10 -20 10 -44z m-240 -40 c0 -11 -13
-36 -19 -36 -4 0 -7 9 -7 20 0 11 6 20 13 20 7 0 13 -2 13 -4z"/>
<path d="M1890 1545 c0 -8 7 -15 15 -15 8 0 15 7 15 15 0 8 -7 15 -15 15 -8 0
-15 -7 -15 -15z"/>
<path d="M2040 1545 c0 -8 7 -15 15 -15 8 0 15 7 15 15 0 8 -7 15 -15 15 -8 0
-15 -7 -15 -15z"/>
<path d="M2130 1546 c0 -9 7 -16 16 -16 17 0 14 22 -4 28 -7 2 -12 -3 -12 -12z"/>
<path d="M2130 1506 c0 -10 9 -16 21 -16 24 0 21 23 -4 28 -10 2 -17 -3 -17
-12z"/>
<path d="M2487 1526 c-4 -10 -1 -13 8 -9 8 3 12 9 9 14 -7 12 -11 11 -17 -5z"/>
<path d="M2443 1515 c0 -8 4 -12 9 -9 5 3 6 10 3 15 -9 13 -12 11 -12 -6z"/>
<path d="M563 1480 c0 -25 2 -35 4 -22 2 12 2 32 0 45 -2 12 -4 2 -4 -23z"/>
<path d="M2394 1451 c-22 -23 158 -31 187 -8 13 10 -3 12 -83 12 -55 0 -101
-2 -104 -4z"/>
<path d="M0 1304 c0 -13 17 -15 113 -14 61 1 368 1 681 1 l568 -1 -7 -645 c-7
-608 -5 -690 19 -630 3 8 6 305 6 660 l0 645 -690 0 c-617 0 -690 -2 -690 -16z"/>
<path d="M1400 660 c0 -411 4 -660 10 -660 5 0 9 242 10 642 0 353 2 643 3
645 2 1 306 3 675 3 586 0 672 2 672 15 0 13 -87 15 -685 15 l-685 0 0 -660z"/>
<path d="M1780 1260 c-7 -13 -5 -21 5 -30 8 -7 15 -27 15 -46 0 -37 28 -62 47
-43 8 8 17 7 32 0 38 -21 114 -6 152 28 34 31 34 31 37 9 2 -13 8 -28 14 -35
13 -16 191 -11 211 6 13 10 16 44 8 83 -7 36 -189 61 -222 32 -14 -12 -18 -12
-28 -1 -8 10 -43 14 -136 15 -111 0 -126 -2 -135 -18z m90 -12 c0 -4 -7 -8
-15 -8 -11 0 -15 -11 -15 -40 0 -23 -5 -40 -11 -40 -7 0 -10 15 -7 40 3 34 1
40 -15 40 -10 0 -16 3 -14 8 7 10 77 10 77 0z m74 -4 c19 -18 21 -55 4 -72
-18 -18 -56 -14 -68 7 -14 28 -13 38 10 61 24 24 34 25 54 4z m103 -11 c7 -18
-15 -43 -39 -43 -14 0 -18 -5 -14 -15 3 -8 1 -15 -4 -15 -15 0 -12 88 3 93 19
6 48 -4 54 -20z m103 17 c0 -5 -9 -10 -19 -10 -29 0 -35 -18 -9 -22 17 -2 23
-10 23 -28 0 -20 -6 -26 -27 -28 -21 -3 -28 1 -28 14 0 14 3 14 15 4 11 -9 19
-10 27 -2 15 15 0 34 -23 27 -15 -5 -19 -1 -19 19 0 23 12 32 48 35 6 0 12 -3
12 -9z m90 -5 c0 -8 9 -15 20 -15 17 0 20 -6 19 -37 -1 -36 -2 -36 -8 -9 -9
41 -31 46 -31 7 0 -17 -4 -31 -10 -31 -5 0 -10 23 -10 50 0 28 5 50 10 50 6 0
10 -7 10 -15z m-44 -10 c9 -8 11 -15 5 -15 -15 0 -14 -47 2 -53 6 -3 2 -6 -9
-6 -17 -1 -23 6 -26 33 -6 55 2 67 28 41z"/>
<path d="M1897 1233 c-13 -13 -7 -54 9 -60 24 -9 46 24 33 48 -10 19 -30 25
-42 12z"/>
<path d="M1990 1225 c0 -8 9 -15 20 -15 11 0 20 7 20 15 0 8 -9 15 -20 15 -11
0 -20 -7 -20 -15z"/>
<path d="M235 1018 c-32 -19 -44 -41 -45 -81 0 -29 7 -45 29 -68 45 -45 107
-35 136 22 43 81 -43 171 -120 127z m90 -33 c14 -13 25 -36 25 -50 0 -31 -41
-75 -70 -75 -12 0 -35 14 -52 30 -24 25 -29 36 -24 58 15 60 79 80 121 37z"/>
<path d="M245 970 c-4 -7 2 -9 19 -4 30 7 35 -9 9 -25 -17 -10 -17 -10 0 -11
9 0 17 -7 17 -16 0 -12 -6 -15 -26 -10 -17 5 -23 3 -19 -4 8 -13 52 -13 60 0
3 6 3 16 -2 23 -4 6 -6 22 -4 35 2 18 -2 22 -23 22 -14 0 -28 -5 -31 -10z"/>
<path d="M1507 1002 c-10 -10 -17 -35 -17 -56 0 -65 31 -96 60 -61 11 14 15
14 32 -2 21 -19 101 -26 129 -12 9 5 20 4 26 -2 8 -8 17 -7 32 0 17 9 22 8 31
-9 13 -25 25 -25 60 0 15 11 30 17 33 14 3 -3 22 -7 42 -10 21 -2 46 -11 57
-18 30 -21 48 -9 74 51 13 29 26 53 29 53 2 0 3 -17 2 -37 -2 -32 2 -38 26
-47 23 -8 31 -6 48 11 17 17 19 24 10 41 -6 11 -11 32 -11 45 0 13 -8 31 -18
41 -18 15 -20 15 -43 -3 -21 -16 -37 -18 -98 -15 -54 4 -78 9 -86 21 -12 16
-14 16 -38 0 -15 -9 -37 -17 -50 -17 -12 0 -28 -5 -33 -10 -7 -7 -18 -4 -34
10 -26 23 -32 24 -47 9 -16 -16 -119 -13 -145 5 -29 21 -51 20 -71 -2z m406
-64 c2 -26 1 -45 -4 -42 -5 3 -9 29 -8 57 1 59 5 54 12 -15z m-338 22 c0 -18
-6 -26 -22 -28 -15 -2 -23 -10 -23 -23 0 -11 -3 -18 -8 -15 -4 2 -6 25 -4 51
4 43 6 46 31 43 20 -2 26 -8 26 -28z m575 -10 c0 -22 5 -40 10 -40 6 0 10 -4
10 -10 0 -5 -13 -10 -30 -10 -16 0 -30 5 -30 10 0 6 5 10 10 10 6 0 10 14 10
30 0 17 -5 30 -11 30 -5 0 -7 5 -4 10 3 6 13 10 21 10 10 0 14 -12 14 -40z
m-390 19 c11 -8 12 -12 3 -16 -15 -6 -17 -43 -3 -43 6 0 10 -4 10 -10 0 -23
-30 -8 -36 18 -3 15 -7 32 -9 39 -7 22 11 29 35 12z m-110 -35 c4 -26 8 -29
30 -24 l25 6 -22 12 c-14 8 -20 18 -17 27 7 17 44 20 44 4 0 -6 -7 -9 -15 -5
-22 8 -18 -3 7 -23 32 -27 15 -40 -50 -38 -44 2 -57 6 -60 19 -2 9 5 19 17 23
28 9 27 24 -1 18 -19 -4 -20 -3 -8 6 24 18 45 8 50 -25z m225 -4 c0 -30 -3
-35 -22 -34 -16 0 -23 -5 -23 -18 0 -11 -4 -17 -8 -14 -6 3 -8 91 -3 102 1 1
13 1 29 0 24 -1 27 -5 27 -36z m116 -2 c5 -35 5 -36 -25 -35 -37 2 -48 32 -17
42 28 9 27 24 -1 18 -19 -4 -20 -3 -8 6 26 19 44 8 51 -31z m31 15 l11 -28 10
28 c6 15 14 27 19 27 11 0 11 -2 -11 -53 -20 -46 -37 -64 -49 -52 -4 3 1 11
10 16 15 8 15 13 2 44 -15 37 -17 45 -9 45 3 0 11 -12 17 -27z"/>
<path d="M1530 960 c0 -15 5 -20 18 -18 9 2 17 10 17 18 0 8 -8 16 -17 18 -13
2 -18 -3 -18 -18z"/>
<path d="M1611 921 c-8 -5 -9 -11 -3 -15 5 -3 15 1 22 9 14 16 3 20 -19 6z"/>
<path d="M1830 930 c0 -13 7 -20 20 -20 13 0 20 7 20 20 0 13 -7 20 -20 20
-13 0 -20 -7 -20 -20z"/>
<path d="M1957 923 c-4 -3 -7 -11 -7 -17 0 -6 5 -5 12 2 6 6 9 14 7 17 -3 3
-9 2 -12 -2z"/>
<path d="M450 946 c-14 -14 -12 -72 3 -83 14 -10 113 -11 123 0 4 4 13 2 20
-4 7 -5 32 -8 56 -6 24 2 51 0 62 -5 11 -6 22 -6 27 -1 5 5 65 8 133 6 135 -4
156 3 156 52 0 46 -20 53 -147 51 -65 0 -123 -4 -129 -8 -6 -4 -14 -4 -18 -1
-10 10 -69 11 -88 2 -10 -6 -19 -5 -23 1 -7 12 -163 8 -175 -4z m17 -53 c-3
-10 -5 -2 -5 17 0 19 2 27 5 18 2 -10 2 -26 0 -35z m59 -11 c-11 -10 -14 3
-8 33 l7 30 3 -28 c2 -16 1 -31 -2 -35z m62 45 c9 -10 6 -17 -8 -30 -26 -22
-30 -21 -30 6 0 37 18 48 38 24z m47 -37 c7 0 16 12 19 26 7 28 19 23 30 -11
5 -18 0 -20 -38 -23 -43 -2 -45 -1 -41 25 5 40 7 42 12 11 2 -16 10 -28 18 -28z
m85 40 c8 11 9 7 4 -15 -7 -32 -12 -41 -18 -34 -2 2 -6 18 -10 34 -5 22 -4 26
4 15 9 -13 11 -13 20 0z m76 -2 c11 -18 12 -48 2 -48 -4 0 -8 6 -9 13 0 10 -2
10 -6 0 -13 -34 -25 4 -14 45 2 7 21 0 27 -10z m44 -38 c5 0 11 12 13 28 4 25
4 25 6 -5 1 -27 -3 -33 -19 -33 -16 0 -20 6 -19 33 2 30 2 30 6 5 2 -16 8 -28
13 -28z m41 9 c-9 -23 -10 -22 -10 11 -1 23 2 31 9 24 7 -7 7 -19 1 -35z m34
5 c1 -24 -9 -32 -19 -16 -7 11 5 54 13 47 3 -4 6 -18 6 -31z m25 -1 c-1 -28
-3 -34 -10 -22 -8 14 -3 59 6 59 2 0 4 -17 4 -37z m40 27 c0 -5 -6 -10 -12
-10 -7 0 -5 -5 5 -11 20 -12 14 -29 -11 -28 -11 0 -13 2 -4 6 10 4 10 8 2 19
-12 14 -6 34 11 34 5 0 9 -4 9 -10z m30 -25 c0 -13 -4 -26 -8 -29 -4 -2 -8 10
-8 29 0 19 4 31 8 29 4 -3 8 -16 8 -29z m-502 5 c3 -8 0 -10 -8 -5 -10 6 -12
4 -7 -8 3 -10 2 -17 -3 -17 -6 0 -10 12 -10 26 0 26 20 30 28 4z m232 -35 c0
-8 -4 -15 -10 -15 -5 0 -7 7 -4 15 4 8 8 15 10 15 2 0 4 -7 4 -15z"/>
<path d="M215 717 c-18 -15 -28 -36 -32 -64 -5 -39 -2 -46 30 -78 29 -29 42
-35 64 -32 47 8 63 18 78 48 51 98 -58 197 -140 126z m110 -22 c14 -13 25 -36
25 -50 0 -14 -11 -37 -25 -50 -38 -39 -86 -32 -110 16 -18 34 -8 69 27 93 32
22 55 20 83 -9z"/>
<path d="M245 680 c-4 -7 2 -9 19 -4 34 8 35 -14 1 -46 -13 -12 -22 -27 -19
-31 7 -12 51 -11 59 1 4 6 -5 10 -20 10 l-26 0 28 24 c24 20 25 26 14 40 -15
18 -47 21 -56 6z"/>
<path d="M472 698 c-7 -7 -12 -35 -12 -63 0 -67 24 -93 69 -77 16 6 32 8 35
5 9 -10 139 -3 152 8 13 10 8 92 -8 121 -8 18 -52 22 -73 8 -24 -16 -73 -19
-85 -5 -15 18 -61 20 -78 3z m190 -60 c5 -58 2 -70 -12 -48 -12 19 -13 100
-1 100 5 0 11 -24 13 -52z m31 6 c-4 -25 -2 -39 8 -44 7 -5 10 -12 7 -15 -15
-16 -28 10 -28 56 0 29 4 48 9 44 5 -3 7 -21 4 -41z m-148 11 c0 -11 3 -25 8
-32 10 -16 -21 -45 -47 -41 -18 3 -22 11 -24 51 l-3 48 33 -3 c25 -2 33 -8 33
-23z m69 -7 c17 -56 16 -64 -12 -63 -34 0 -44 34 -13 42 12 3 21 10 21 15 0 5
-10 6 -21 3 -15 -5 -19 -4 -15 4 10 15 36 14 40 -1z"/>
<path d="M500 655 c0 -8 7 -15 15 -15 8 0 15 7 15 15 0 8 -7 15 -15 15 -8 0
-15 -7 -15 -15z"/>
<path d="M500 615 c0 -8 9 -15 20 -15 11 0 20 7 20 15 0 8 -9 15 -20 15 -11 0
-20 -7 -20 -15z"/>
<path d="M580 610 c0 -5 7 -10 15 -10 8 0 15 5 15 10 0 6 -7 10 -15 10 -8 0
-15 -4 -15 -10z"/>
<path d="M1502 648 c-17 -17 -15 -100 2 -123 14 -19 15 -19 35 -1 19 18 22 18
39 3 14 -13 36 -16 104 -14 48 1 90 5 94 9 3 4 16 -4 26 -18 20 -24 21 -24 40
-7 24 22 123 20 148 -2 24 -22 36 -19 63 16 21 27 25 28 36 15 16 -19 77 -21
87 -4 15 24 12 102 -4 121 -19 21 -55 22 -73 1 -7 -8 -21 -13 -31 -11 -10 3
-21 1 -24 -4 -3 -5 -10 -6 -16 -2 -7 3 -29 7 -49 8 -21 1 -45 8 -54 15 -12 10
-21 10 -38 2 -12 -7 -31 -14 -42 -15 -11 -2 -28 -7 -38 -12 -11 -5 -24 -2 -36
9 -14 13 -26 14 -66 7 -51 -10 -112 -4 -121 10 -8 13 -68 11 -82 -3z m62 -14
c26 -10 20 -53 -9 -60 -14 -3 -25 -12 -25 -20 0 -8 -3 -14 -7 -14 -5 0 -6 22
-5 50 4 50 11 57 46 44z m355 -84 c5 0 11 7 15 15 3 8 12 15 21 15 8 0 15 5
15 11 0 6 -9 8 -22 4 -18 -6 -20 -4 -12 5 20 20 48 7 55 -26 l6 -31 -49 0 -48
-1 2 52 2 51 3 -47 c2 -27 8 -48 12 -48z m241 75 c13 -16 6 -33 -24 -55 -21
-14 -20 -15 9 -21 29 -6 29 -7 -7 -8 -30 -1 -36 2 -32 14 4 9 15 20 25 26 11
5 19 17 19 25 0 12 -6 15 -27 9 -23 -5 -25 -4 -14 9 17 20 35 20 51 1z m-404
-10 c9 -8 11 -15 5 -15 -15 0 -14 -47 2 -54 6 -3 3 -5 -8 -3 -20 2 -36 47 -27
75 5 16 10 15 28 -3z m-106 -35 c3 -17 12 -26 28 -27 28 -3 29 13 1 20 -12 3
-19 12 -17 19 5 16 48 24 48 9 0 -6 -7 -8 -15 -5 -8 4 -15 2 -15 -4 0 -5 9
-12 21 -15 12 -3 19 -12 17 -19 -6 -18 -120 -18 -126 0 -2 7 5 16 17 19 12 3
21 10 21 15 0 6 -7 8 -15 4 -8 -3 -15 -1 -15 5 0 6 10 9 22 7 15 -2 25 -12 28
-28z m225 -5 c0 -23 -5 -31 -22 -33 -13 -2 -23 -10 -23 -18 0 -8 -4 -14 -9
-14 -4 0 -8 23 -7 50 1 50 1 51 31 48 26 -3 30 -7 30 -33z m150 8 l7 -28 10
28 c5 15 14 27 19 27 17 0 -28 -95 -47 -98 -15 -2 -16 -1 -5 6 13 10 12 37 -4
75 -4 9 -3 17 3 17 5 0 13 -12 17 -27z"/>
<path d="M1530 605 c0 -8 9 -15 20 -15 11 0 20 7 20 15 0 8 -9 15 -20 15 -11
0 -20 -7 -20 -15z"/>
<path d="M1950 560 c0 -5 5 -10 10 -10 6 0 10 5 10 10 0 6 -4 10 -10 10 -5 0
-10 -4 -10 -10z"/>
<path d="M1610 560 c0 -5 5 -10 10 -10 6 0 10 5 10 10 0 6 -4 10 -10 10 -5 0
-10 -4 -10 -10z"/>
<path d="M1833 584 c-8 -21 13 -42 28 -27 13 13 5 43 -11 43 -6 0 -13 -7 -17
-16z"/>
<path d="M233 440 c-54 -32 -68 -83 -38 -140 47 -90 175 -52 175 52 0 48 -23
82 -67 99 -32 12 -33 12 -70 -11z m100 -42 c24 -28 21 -65 -8 -93 -46 -47
-118 -19 -118 45 0 70 81 101 126 48z"/>
<path d="M263 393 c-7 -3 -13 -9 -13 -14 0 -6 5 -7 10 -4 6 4 10 -8 10 -29 0
-19 -6 -37 -12 -39 -7 -3 3 -5 22 -5 19 0 29 2 23 5 -7 2 -13 22 -13 43 0 40
-6 50 -27 43z"/>
<path d="M483 415 c-18 -13 -22 -25 -21 -65 2 -65 25 -89 68 -73 17 6 32 8 35
3 7 -11 69 -1 73 11 3 6 8 6 15 0 16 -13 148 -21 168 -10 9 5 20 25 23 45 9
47 -14 75 -58 72 -17 -1 -42 5 -56 13 -29 17 -47 18 -77 1 -24 -13 -56 -16
-66 -5 -4 3 -17 7 -30 8 -12 1 -29 5 -37 9 -8 3 -25 -1 -37 -9z m195 -62 l-1
-58 -6 50 c-6 48 -5 65 5 65 2 0 3 -26 2 -57z m39 20 c-4 -23 -3 -23 14 -7 20
18 27 6 7 -14 -9 -9 -7 -16 7 -32 19 -21 8 -29 -13 -8 -9 9 -12 9 -12 0 0 -7
-4 -12 -10 -12 -5 0 -10 25 -10 56 0 37 4 53 11 48 6 -3 9 -17 6 -31z m-181
15 c5 -7 2 -9 -8 -6 -8 4 -21 2 -29 -2 -10 -7 -7 -11 13 -19 34 -13 43 -28 27
-47 -14 -18 -51 -15 -57 4 -3 11 0 12 16 3 16 -8 23 -8 28 1 4 6 3 13 -3 15
-27 9 -46 31 -40 47 7 18 42 22 53 4z m54 -9 c11 -8 12 -12 3 -16 -7 -2 -13
-16 -13 -29 0 -14 4 -22 10 -19 6 3 10 1 10 -4 0 -6 -6 -11 -14 -11 -16 0 -31
34 -21 50 3 5 2 10 -4 10 -6 0 -8 7 -5 15 7 18 14 18 34 4z m58 -17 c-12 -2
-18 -13 -18 -33 0 -16 -4 -29 -10 -29 -5 0 -10 15 -10 34 0 34 20 51 45 37 6
-3 2 -7 -7 -9z m171 -1 c12 -21 5 -31 -21 -31 -11 0 -17 -4 -13 -10 3 -5 13
-6 23 -3 14 5 15 4 4 -8 -27 -29 -67 26 -42 56 17 20 37 19 49 -4z"/>
<path d="M788 353 c7 -3 16 -2 19 1 4 3 -2 6 -13 5 -11 0 -14 -3 -6 -6z"/>
<path d="M1522 298 c-7 -7 -12 -38 -12 -70 0 -65 17 -83 49 -54 16 15 19 15
35 -2 12 -14 31 -19 71 -20 30 0 58 4 61 9 3 5 14 5 25 -2 15 -7 24 -7 34 1
10 8 17 6 29 -12 15 -22 17 -22 44 -6 32 19 125 19 145 -1 18 -18 44 -13 61
11 12 17 18 20 28 10 17 -17 42 -15 61 6 24 26 23 104 -1 125 -24 22 -38 21
-73 -4 -16 -11 -33 -18 -37 -15 -5 3 -26 6 -48 7 -21 1 -47 9 -56 17 -16 13
-20 13 -38 -3 -11 -10 -23 -15 -26 -12 -4 3 -21 0 -38 -7 -29 -12 -35 -11 -55
5 -15 12 -28 16 -35 10 -10 -8 -35 -11 -78 -11 -24 0 -53 6 -81 18 -36 15 -50
15 -65 0z m410 -63 c2 -34 -1 -54 -7 -52 -13 5 -19 107 -6 107 5 0 11 -25 13
-55z m-343 31 c16 -20 3 -46 -24 -46 -18 0 -22 -4 -18 -20 3 -11 0 -20 -6 -20
-7 0 -11 20 -11 50 0 46 2 50 24 50 13 0 29 -6 35 -14z m556 -36 c0 -41 -2
-45 -24 -45 -13 0 -26 5 -28 11 -2 7 6 10 22 7 31 -7 34 14 3 27 -18 7 -19 9
-5 9 9 1 17 8 17 17 0 11 -6 14 -21 9 -15 -5 -19 -4 -14 5 4 6 17 10 28 8 19
-3 22 -10 22 -48z m-369 15 c-20 -15 -21 -45 -1 -45 8 0 15 -5 15 -11 0 -6 -8
-9 -17 -7 -10 2 -20 17 -24 38 -9 42 -5 50 22 43 20 -6 20 -7 5 -18z m-122 3
c18 -57 16 -65 -12 -66 -15 0 -30 5 -34 11 -9 14 10 37 29 37 8 0 12 4 8 10
-3 5 -13 6 -22 3 -11 -4 -14 -3 -9 5 10 16 36 15 40 0z m71 2 c3 -6 -4 -10
-17 -11 l-23 0 23 -11 c13 -6 21 -19 20 -27 -4 -18 -48 -29 -48 -12 0 6 10 11
23 12 l22 0 -22 11 c-23 11 -29 28 -16 41 10 10 31 8 38 -3z m165 -10 c15 -28
-5 -64 -32 -57 -14 4 -18 2 -14 -8 3 -8 1 -17 -4 -20 -6 -4 -10 16 -10 47 0
50 2 54 25 56 16 1 28 -5 35 -18z m104 8 c17 -55 16 -63 -14 -65 -24 -2 -30 2
-30 18 0 12 8 23 20 26 11 3 17 9 15 14 -3 4 -13 5 -22 2 -11 -4 -14 -3 -9 5
10 16 36 15 40 0z m44 -15 l10 -28 11 29 c18 45 23 24 6 -25 -14 -40 -29 -58
-47 -59 -5 0 -8 5 -8 10 0 6 7 10 15 10 19 0 19 8 0 54 -8 20 -11 36 -6 36 5
0 14 -12 19 -27z"/>
<path d="M1544 259 c-10 -17 13 -36 27 -22 12 12 4 33 -11 33 -5 0 -12 -5 -16
-11z"/>
<path d="M1625 210 c-3 -5 1 -10 9 -10 9 0 16 5 16 10 0 6 -4 10 -9 10 -6 0
-13 -4 -16 -10z"/>
<path d="M1845 230 c-8 -14 3 -30 21 -30 8 0 14 9 14 20 0 21 -24 28 -35 10z"/>
<path d="M1965 210 c-3 -5 1 -10 9 -10 9 0 16 5 16 10 0 6 -4 10 -9 10 -6 0
-13 -4 -16 -10z"/>
</g>
</svg>
